<svg width="700" height="200" viewBox="0 0 700 200" fill="none" xmlns="http://www.w3.org/2000/svg">
<path d="M202.464 113.438C201.258 147.017 194.184 155.347 169.343 162.4C193.724 167.921 231.599 143.949 231.599 106.016V69.4249V30.988C211.249 42.5035 202.463 55.3529 202.464 80.8802V113.438Z" fill="white"/>
<path d="M116.067 107.715C116.067 139.967 142.213 166.113 174.465 166.113C202.258 166.113 225.515 146.697 231.415 120.689C232.363 124.977 232.863 129.433 232.863 134.007C232.863 167.934 205.36 195.438 171.432 195.438C137.504 195.438 110 167.934 110 134.007C110 124.455 112.181 115.412 116.07 107.349C116.07 107.471 116.067 107.593 116.067 107.715Z" fill="white"/>
<path d="M202.617 60.5824C202.617 13.6604 259.506 18.1073 324.983 4C255.574 19.219 210.498 24.6807 202.617 60.5824Z" fill="#C9A84C"/>
<path d="M339.176 22.9091H345.256V43.1932C345.256 45.0682 344.834 46.697 343.991 48.0795C343.158 49.4621 341.998 50.5275 340.511 51.2756C339.025 52.0237 337.296 52.3977 335.327 52.3977C333.575 52.3977 331.984 52.09 330.554 51.4744C329.134 50.8494 328.007 49.9025 327.173 48.6335C326.34 47.3551 325.928 45.75 325.938 43.8182H332.06C332.079 44.5852 332.235 45.2434 332.528 45.7926C332.831 46.3324 333.243 46.7491 333.764 47.0426C334.295 47.3267 334.92 47.4688 335.639 47.4688C336.397 47.4688 337.036 47.3078 337.557 46.9858C338.087 46.6544 338.49 46.1714 338.764 45.5369C339.039 44.9025 339.176 44.1212 339.176 43.1932V22.9091ZM360.449 52.4119C359.057 52.4119 357.816 52.1705 356.727 51.6875C355.638 51.1951 354.777 50.4706 354.142 49.5142C353.517 48.5483 353.205 47.3456 353.205 45.9062C353.205 44.6941 353.427 43.6761 353.872 42.8523C354.317 42.0284 354.923 41.3655 355.69 40.8636C356.457 40.3617 357.329 39.983 358.304 39.7273C359.289 39.4716 360.321 39.2917 361.401 39.1875C362.67 39.0549 363.692 38.9318 364.469 38.8182C365.245 38.6951 365.809 38.5152 366.159 38.2784C366.509 38.0417 366.685 37.6913 366.685 37.2273V37.142C366.685 36.2424 366.401 35.5464 365.832 35.054C365.274 34.5616 364.478 34.3153 363.446 34.3153C362.357 34.3153 361.491 34.5568 360.847 35.0398C360.203 35.5133 359.777 36.1098 359.568 36.8295L353.972 36.375C354.256 35.0492 354.814 33.9034 355.648 32.9375C356.481 31.9621 357.556 31.214 358.872 30.6932C360.198 30.1629 361.732 29.8977 363.474 29.8977C364.687 29.8977 365.847 30.0398 366.955 30.3239C368.072 30.608 369.062 31.0483 369.923 31.6449C370.795 32.2415 371.481 33.0085 371.983 33.946C372.485 34.8741 372.736 35.9867 372.736 37.2841V52H366.997V48.9744H366.827C366.476 49.6562 366.008 50.2576 365.42 50.7784C364.833 51.2898 364.128 51.6922 363.304 51.9858C362.48 52.2699 361.528 52.4119 360.449 52.4119ZM362.182 48.2358C363.072 48.2358 363.858 48.0606 364.54 47.7102C365.222 47.3504 365.757 46.8674 366.145 46.2614C366.533 45.6553 366.727 44.9687 366.727 44.2017V41.8864C366.538 42.0095 366.277 42.1231 365.946 42.2273C365.624 42.322 365.259 42.4119 364.852 42.4972C364.445 42.5729 364.038 42.6439 363.631 42.7102C363.223 42.767 362.854 42.8191 362.523 42.8665C361.813 42.9706 361.192 43.1364 360.662 43.3636C360.132 43.5909 359.72 43.8987 359.426 44.2869C359.133 44.6657 358.986 45.1392 358.986 45.7074C358.986 46.5312 359.284 47.161 359.881 47.5966C360.487 48.0227 361.254 48.2358 362.182 48.2358ZM393.163 30.1818V34.7273H379.697V30.1818H393.163ZM382.78 52V28.6051C382.78 27.0237 383.088 25.7121 383.703 24.6705C384.328 23.6288 385.18 22.8475 386.26 22.3267C387.339 21.8059 388.566 21.5455 389.939 21.5455C390.867 21.5455 391.714 21.6165 392.482 21.7585C393.258 21.9006 393.836 22.0284 394.214 22.142L393.135 26.6875C392.898 26.6117 392.605 26.5407 392.254 26.4744C391.913 26.4081 391.563 26.375 391.203 26.375C390.313 26.375 389.693 26.5833 389.342 27C388.992 27.4072 388.817 27.9801 388.817 28.7188V52H382.78ZM412.593 30.1818V34.7273H399.127V30.1818H412.593ZM402.21 52V28.6051C402.21 27.0237 402.517 25.7121 403.133 24.6705C403.758 23.6288 404.61 22.8475 405.69 22.3267C406.769 21.8059 407.996 21.5455 409.369 21.5455C410.297 21.5455 411.144 21.6165 411.911 21.7585C412.688 21.9006 413.265 22.0284 413.644 22.142L412.565 26.6875C412.328 26.6117 412.034 26.5407 411.684 26.4744C411.343 26.4081 410.993 26.375 410.633 26.375C409.743 26.375 409.122 26.5833 408.772 27C408.422 27.4072 408.246 27.9801 408.246 28.7188V52H402.21ZM426.341 39.3864V52H420.29V30.1818H426.057V34.0312H426.312C426.795 32.7623 427.605 31.7585 428.741 31.0199C429.878 30.2718 431.256 29.8977 432.875 29.8977C434.39 29.8977 435.711 30.2292 436.838 30.892C437.965 31.5549 438.841 32.5019 439.466 33.733C440.091 34.9545 440.403 36.4129 440.403 38.108V52H434.352V39.1875C434.362 37.8523 434.021 36.8106 433.33 36.0625C432.638 35.3049 431.687 34.9261 430.474 34.9261C429.66 34.9261 428.94 35.1013 428.315 35.4517C427.7 35.8021 427.217 36.3134 426.866 36.9858C426.526 37.6487 426.35 38.4489 426.341 39.3864ZM455.394 52.4119C454.002 52.4119 452.762 52.1705 451.673 51.6875C450.584 51.1951 449.722 50.4706 449.087 49.5142C448.462 48.5483 448.15 47.3456 448.15 45.9062C448.15 44.6941 448.372 43.6761 448.817 42.8523C449.263 42.0284 449.869 41.3655 450.636 40.8636C451.403 40.3617 452.274 39.983 453.249 39.7273C454.234 39.4716 455.266 39.2917 456.346 39.1875C457.615 39.0549 458.638 38.9318 459.414 38.8182C460.191 38.6951 460.754 38.5152 461.104 38.2784C461.455 38.0417 461.63 37.6913 461.63 37.2273V37.142C461.63 36.2424 461.346 35.5464 460.778 35.054C460.219 34.5616 459.424 34.3153 458.391 34.3153C457.302 34.3153 456.436 34.5568 455.792 35.0398C455.148 35.5133 454.722 36.1098 454.513 36.8295L448.917 36.375C449.201 35.0492 449.76 33.9034 450.593 32.9375C451.426 31.9621 452.501 31.214 453.817 30.6932C455.143 30.1629 456.677 29.8977 458.42 29.8977C459.632 29.8977 460.792 30.0398 461.9 30.3239C463.017 30.608 464.007 31.0483 464.869 31.6449C465.74 32.2415 466.426 33.0085 466.928 33.946C467.43 34.8741 467.681 35.9867 467.681 37.2841V52H461.942V48.9744H461.772C461.422 49.6562 460.953 50.2576 460.366 50.7784C459.779 51.2898 459.073 51.6922 458.249 51.9858C457.425 52.2699 456.474 52.4119 455.394 52.4119ZM457.127 48.2358C458.017 48.2358 458.803 48.0606 459.485 47.7102C460.167 47.3504 460.702 46.8674 461.09 46.2614C461.478 45.6553 461.673 44.9687 461.673 44.2017V41.8864C461.483 42.0095 461.223 42.1231 460.891 42.2273C460.569 42.322 460.205 42.4119 459.798 42.4972C459.39 42.5729 458.983 42.6439 458.576 42.7102C458.169 42.767 457.799 42.8191 457.468 42.8665C456.758 42.9706 456.138 43.1364 455.607 43.3636C455.077 43.5909 454.665 43.8987 454.371 44.2869C454.078 44.6657 453.931 45.1392 453.931 45.7074C453.931 46.5312 454.229 47.161 454.826 47.5966C455.432 48.0227 456.199 48.2358 457.127 48.2358ZM327.528 70.9091H335.114L343.125 90.4545H343.466L351.477 70.9091H359.062V100H353.097V81.0653H352.855L345.327 99.858H341.264L333.736 80.9943H333.494V100H327.528V70.9091ZM382.008 90.7102V78.1818H388.059V100H382.249V96.0369H382.022C381.53 97.3153 380.71 98.3428 379.565 99.1193C378.428 99.8958 377.041 100.284 375.403 100.284C373.944 100.284 372.661 99.9527 371.553 99.2898C370.445 98.6269 369.579 97.6847 368.954 96.4631C368.338 95.2415 368.026 93.7784 368.016 92.0739V78.1818H374.067V90.9943C374.077 92.2822 374.423 93.3002 375.104 94.0483C375.786 94.7964 376.7 95.1705 377.846 95.1705C378.575 95.1705 379.257 95.0047 379.891 94.6733C380.526 94.3324 381.037 93.8305 381.425 93.1676C381.823 92.5047 382.017 91.6856 382.008 90.7102ZM415.053 84.4034L409.513 84.7443C409.418 84.2708 409.214 83.8447 408.902 83.4659C408.589 83.0777 408.178 82.7699 407.666 82.5426C407.164 82.3059 406.563 82.1875 405.862 82.1875C404.925 82.1875 404.134 82.3864 403.49 82.7841C402.846 83.1723 402.524 83.6932 402.524 84.3466C402.524 84.8674 402.732 85.3078 403.149 85.6676C403.566 86.0275 404.281 86.3163 405.294 86.5341L409.243 87.3295C411.364 87.7652 412.946 88.4659 413.987 89.4318C415.029 90.3977 415.55 91.6667 415.55 93.2386C415.55 94.6686 415.128 95.9233 414.286 97.0028C413.452 98.0824 412.306 98.9252 410.848 99.5312C409.399 100.128 407.728 100.426 405.834 100.426C402.946 100.426 400.644 99.8248 398.93 98.6222C397.226 97.41 396.227 95.7623 395.933 93.679L401.885 93.3665C402.065 94.2472 402.5 94.9195 403.192 95.3835C403.883 95.8381 404.768 96.0653 405.848 96.0653C406.909 96.0653 407.761 95.8617 408.405 95.4545C409.058 95.0379 409.39 94.5028 409.399 93.8494C409.39 93.3002 409.158 92.8504 408.703 92.5C408.249 92.1402 407.548 91.8655 406.601 91.6761L402.822 90.9233C400.692 90.4972 399.106 89.7585 398.064 88.7074C397.032 87.6562 396.516 86.3163 396.516 84.6875C396.516 83.286 396.894 82.0786 397.652 81.0653C398.419 80.0521 399.494 79.2708 400.876 78.7216C402.268 78.1723 403.897 77.8977 405.763 77.8977C408.518 77.8977 410.687 78.4801 412.268 79.6449C413.859 80.8097 414.787 82.3958 415.053 84.4034ZM429.411 70.9091V100H423.36V70.9091H429.411ZM438.259 100V78.1818H444.31V100H438.259ZM441.298 75.3693C440.399 75.3693 439.627 75.071 438.983 74.4744C438.348 73.8684 438.031 73.1439 438.031 72.3011C438.031 71.4678 438.348 70.7528 438.983 70.1562C439.627 69.5502 440.399 69.2472 441.298 69.2472C442.198 69.2472 442.965 69.5502 443.599 70.1562C444.243 70.7528 444.565 71.4678 444.565 72.3011C444.565 73.1439 444.243 73.8684 443.599 74.4744C442.965 75.071 442.198 75.3693 441.298 75.3693ZM453.157 100V78.1818H458.924V82.0312H459.18C459.634 80.7528 460.392 79.7443 461.452 79.0057C462.513 78.267 463.782 77.8977 465.259 77.8977C466.755 77.8977 468.029 78.2718 469.08 79.0199C470.131 79.7585 470.832 80.7623 471.183 82.0312H471.41C471.855 80.7812 472.66 79.7822 473.825 79.0341C474.999 78.2765 476.386 77.8977 477.987 77.8977C480.022 77.8977 481.675 78.5464 482.944 79.8438C484.222 81.1316 484.862 82.9593 484.862 85.3267V100H478.825V86.5199C478.825 85.3078 478.503 84.3987 477.859 83.7926C477.215 83.1866 476.41 82.8835 475.444 82.8835C474.345 82.8835 473.488 83.2339 472.873 83.9347C472.257 84.6259 471.95 85.5398 471.95 86.6761V100H466.083V86.392C466.083 85.322 465.775 84.4697 465.16 83.8352C464.554 83.2008 463.754 82.8835 462.759 82.8835C462.087 82.8835 461.481 83.054 460.941 83.3949C460.411 83.7263 459.989 84.1951 459.677 84.8011C459.364 85.3977 459.208 86.0985 459.208 86.9034V100H453.157ZM332.543 148H325.952L335.994 118.909H343.92L353.949 148H347.358L340.071 125.557H339.844L332.543 148ZM332.131 136.565H347.699V141.366H332.131V136.565ZM378.982 132.403L373.442 132.744C373.348 132.271 373.144 131.845 372.832 131.466C372.519 131.078 372.107 130.77 371.596 130.543C371.094 130.306 370.493 130.188 369.792 130.188C368.854 130.188 368.064 130.386 367.42 130.784C366.776 131.172 366.454 131.693 366.454 132.347C366.454 132.867 366.662 133.308 367.079 133.668C367.496 134.027 368.21 134.316 369.224 134.534L373.173 135.33C375.294 135.765 376.875 136.466 377.917 137.432C378.959 138.398 379.479 139.667 379.479 141.239C379.479 142.669 379.058 143.923 378.215 145.003C377.382 146.082 376.236 146.925 374.778 147.531C373.329 148.128 371.657 148.426 369.763 148.426C366.875 148.426 364.574 147.825 362.86 146.622C361.156 145.41 360.156 143.762 359.863 141.679L365.815 141.366C365.995 142.247 366.43 142.92 367.121 143.384C367.813 143.838 368.698 144.065 369.778 144.065C370.838 144.065 371.691 143.862 372.335 143.455C372.988 143.038 373.319 142.503 373.329 141.849C373.319 141.3 373.087 140.85 372.633 140.5C372.178 140.14 371.478 139.866 370.531 139.676L366.752 138.923C364.621 138.497 363.035 137.759 361.994 136.707C360.961 135.656 360.445 134.316 360.445 132.688C360.445 131.286 360.824 130.079 361.582 129.065C362.349 128.052 363.424 127.271 364.806 126.722C366.198 126.172 367.827 125.898 369.692 125.898C372.448 125.898 374.617 126.48 376.198 127.645C377.789 128.81 378.717 130.396 378.982 132.403ZM405.443 132.403L399.903 132.744C399.809 132.271 399.605 131.845 399.293 131.466C398.98 131.078 398.568 130.77 398.057 130.543C397.555 130.306 396.954 130.188 396.253 130.188C395.315 130.188 394.525 130.386 393.881 130.784C393.237 131.172 392.915 131.693 392.915 132.347C392.915 132.867 393.123 133.308 393.54 133.668C393.956 134.027 394.671 134.316 395.685 134.534L399.634 135.33C401.755 135.765 403.336 136.466 404.378 137.432C405.42 138.398 405.94 139.667 405.94 141.239C405.94 142.669 405.519 143.923 404.676 145.003C403.843 146.082 402.697 146.925 401.239 147.531C399.79 148.128 398.118 148.426 396.224 148.426C393.336 148.426 391.035 147.825 389.321 146.622C387.616 145.41 386.617 143.762 386.324 141.679L392.276 141.366C392.455 142.247 392.891 142.92 393.582 143.384C394.274 143.838 395.159 144.065 396.239 144.065C397.299 144.065 398.152 143.862 398.795 143.455C399.449 143.038 399.78 142.503 399.79 141.849C399.78 141.3 399.548 140.85 399.094 140.5C398.639 140.14 397.938 139.866 396.991 139.676L393.213 138.923C391.082 138.497 389.496 137.759 388.455 136.707C387.422 135.656 386.906 134.316 386.906 132.688C386.906 131.286 387.285 130.079 388.043 129.065C388.81 128.052 389.884 127.271 391.267 126.722C392.659 126.172 394.288 125.898 396.153 125.898C398.909 125.898 401.078 126.48 402.659 127.645C404.25 128.81 405.178 130.396 405.443 132.403ZM423.609 148.426C421.402 148.426 419.494 147.957 417.884 147.02C416.284 146.073 415.048 144.757 414.177 143.071C413.306 141.376 412.87 139.411 412.87 137.176C412.87 134.922 413.306 132.953 414.177 131.267C415.048 129.572 416.284 128.256 417.884 127.318C419.494 126.371 421.402 125.898 423.609 125.898C425.815 125.898 427.719 126.371 429.319 127.318C430.929 128.256 432.169 129.572 433.04 131.267C433.912 132.953 434.347 134.922 434.347 137.176C434.347 139.411 433.912 141.376 433.04 143.071C432.169 144.757 430.929 146.073 429.319 147.02C427.719 147.957 425.815 148.426 423.609 148.426ZM423.637 143.739C424.641 143.739 425.479 143.455 426.151 142.886C426.824 142.309 427.33 141.523 427.671 140.528C428.022 139.534 428.197 138.402 428.197 137.134C428.197 135.865 428.022 134.733 427.671 133.739C427.33 132.744 426.824 131.958 426.151 131.381C425.479 130.803 424.641 130.514 423.637 130.514C422.624 130.514 421.772 130.803 421.08 131.381C420.398 131.958 419.882 132.744 419.532 133.739C419.191 134.733 419.021 135.865 419.021 137.134C419.021 138.402 419.191 139.534 419.532 140.528C419.882 141.523 420.398 142.309 421.08 142.886C421.772 143.455 422.624 143.739 423.637 143.739ZM452.14 148.426C449.905 148.426 447.983 147.953 446.373 147.006C444.772 146.049 443.541 144.723 442.68 143.028C441.827 141.333 441.401 139.383 441.401 137.176C441.401 134.941 441.832 132.981 442.694 131.295C443.565 129.6 444.801 128.279 446.401 127.332C448.002 126.376 449.905 125.898 452.112 125.898C454.015 125.898 455.682 126.243 457.112 126.935C458.541 127.626 459.673 128.597 460.506 129.847C461.34 131.097 461.799 132.564 461.884 134.25H456.174C456.013 133.161 455.587 132.285 454.896 131.622C454.214 130.95 453.319 130.614 452.211 130.614C451.273 130.614 450.454 130.869 449.754 131.381C449.062 131.883 448.522 132.616 448.134 133.582C447.746 134.548 447.552 135.718 447.552 137.091C447.552 138.483 447.741 139.667 448.12 140.642C448.508 141.617 449.053 142.361 449.754 142.872C450.454 143.384 451.273 143.639 452.211 143.639C452.902 143.639 453.522 143.497 454.072 143.213C454.63 142.929 455.09 142.517 455.45 141.977C455.819 141.428 456.06 140.77 456.174 140.003H461.884C461.79 141.67 461.335 143.137 460.521 144.406C459.716 145.666 458.603 146.651 457.183 147.361C455.762 148.071 454.081 148.426 452.14 148.426ZM469.759 148V126.182H475.81V148H469.759ZM472.798 123.369C471.899 123.369 471.127 123.071 470.483 122.474C469.848 121.868 469.531 121.144 469.531 120.301C469.531 119.468 469.848 118.753 470.483 118.156C471.127 117.55 471.899 117.247 472.798 117.247C473.698 117.247 474.465 117.55 475.099 118.156C475.743 118.753 476.065 119.468 476.065 120.301C476.065 121.144 475.743 121.868 475.099 122.474C474.465 123.071 473.698 123.369 472.798 123.369ZM490.879 148.412C489.487 148.412 488.246 148.17 487.157 147.688C486.068 147.195 485.206 146.471 484.572 145.514C483.947 144.548 483.634 143.346 483.634 141.906C483.634 140.694 483.857 139.676 484.302 138.852C484.747 138.028 485.353 137.366 486.12 136.864C486.887 136.362 487.758 135.983 488.734 135.727C489.719 135.472 490.751 135.292 491.83 135.188C493.099 135.055 494.122 134.932 494.898 134.818C495.675 134.695 496.238 134.515 496.589 134.278C496.939 134.042 497.114 133.691 497.114 133.227V133.142C497.114 132.242 496.83 131.546 496.262 131.054C495.703 130.562 494.908 130.315 493.876 130.315C492.787 130.315 491.92 130.557 491.276 131.04C490.632 131.513 490.206 132.11 489.998 132.83L484.401 132.375C484.685 131.049 485.244 129.903 486.077 128.938C486.911 127.962 487.986 127.214 489.302 126.693C490.628 126.163 492.162 125.898 493.904 125.898C495.116 125.898 496.276 126.04 497.384 126.324C498.502 126.608 499.491 127.048 500.353 127.645C501.224 128.241 501.911 129.009 502.413 129.946C502.915 130.874 503.165 131.987 503.165 133.284V148H497.427V144.974H497.256C496.906 145.656 496.437 146.258 495.85 146.778C495.263 147.29 494.558 147.692 493.734 147.986C492.91 148.27 491.958 148.412 490.879 148.412ZM492.612 144.236C493.502 144.236 494.288 144.061 494.969 143.71C495.651 143.35 496.186 142.867 496.575 142.261C496.963 141.655 497.157 140.969 497.157 140.202V137.886C496.968 138.009 496.707 138.123 496.376 138.227C496.054 138.322 495.689 138.412 495.282 138.497C494.875 138.573 494.468 138.644 494.06 138.71C493.653 138.767 493.284 138.819 492.952 138.866C492.242 138.971 491.622 139.136 491.092 139.364C490.561 139.591 490.149 139.899 489.856 140.287C489.562 140.666 489.415 141.139 489.415 141.707C489.415 142.531 489.714 143.161 490.31 143.597C490.916 144.023 491.683 144.236 492.612 144.236ZM523.465 126.182V130.727H510.326V126.182H523.465ZM513.309 120.955H519.36V141.295C519.36 141.854 519.445 142.29 519.616 142.602C519.786 142.905 520.023 143.118 520.326 143.241C520.638 143.365 520.998 143.426 521.406 143.426C521.69 143.426 521.974 143.402 522.258 143.355C522.542 143.298 522.76 143.256 522.911 143.227L523.863 147.73C523.56 147.825 523.134 147.934 522.585 148.057C522.035 148.189 521.368 148.27 520.582 148.298C519.123 148.355 517.845 148.161 516.746 147.716C515.657 147.271 514.81 146.58 514.204 145.642C513.598 144.705 513.299 143.521 513.309 142.091V120.955ZM531.407 148V126.182H537.458V148H531.407ZM534.447 123.369C533.547 123.369 532.775 123.071 532.131 122.474C531.497 121.868 531.18 121.144 531.18 120.301C531.18 119.468 531.497 118.753 532.131 118.156C532.775 117.55 533.547 117.247 534.447 117.247C535.346 117.247 536.113 117.55 536.748 118.156C537.392 118.753 537.714 119.468 537.714 120.301C537.714 121.144 537.392 121.868 536.748 122.474C536.113 123.071 535.346 123.369 534.447 123.369ZM556.163 148.426C553.957 148.426 552.049 147.957 550.439 147.02C548.839 146.073 547.603 144.757 546.732 143.071C545.86 141.376 545.425 139.411 545.425 137.176C545.425 134.922 545.86 132.953 546.732 131.267C547.603 129.572 548.839 128.256 550.439 127.318C552.049 126.371 553.957 125.898 556.163 125.898C558.37 125.898 560.273 126.371 561.874 127.318C563.483 128.256 564.724 129.572 565.595 131.267C566.466 132.953 566.902 134.922 566.902 137.176C566.902 139.411 566.466 141.376 565.595 143.071C564.724 144.757 563.483 146.073 561.874 147.02C560.273 147.957 558.37 148.426 556.163 148.426ZM556.192 143.739C557.196 143.739 558.034 143.455 558.706 142.886C559.378 142.309 559.885 141.523 560.226 140.528C560.576 139.534 560.751 138.402 560.751 137.134C560.751 135.865 560.576 134.733 560.226 133.739C559.885 132.744 559.378 131.958 558.706 131.381C558.034 130.803 557.196 130.514 556.192 130.514C555.179 130.514 554.326 130.803 553.635 131.381C552.953 131.958 552.437 132.744 552.087 133.739C551.746 134.733 551.575 135.865 551.575 137.134C551.575 138.402 551.746 139.534 552.087 140.528C552.437 141.523 552.953 142.309 553.635 142.886C554.326 143.455 555.179 143.739 556.192 143.739ZM580.888 135.386V148H574.837V126.182H580.604V130.031H580.859C581.342 128.762 582.152 127.759 583.288 127.02C584.425 126.272 585.803 125.898 587.422 125.898C588.937 125.898 590.258 126.229 591.385 126.892C592.512 127.555 593.388 128.502 594.013 129.733C594.638 130.955 594.95 132.413 594.95 134.108V148H588.899V135.188C588.909 133.852 588.568 132.811 587.876 132.062C587.185 131.305 586.233 130.926 585.021 130.926C584.207 130.926 583.487 131.101 582.862 131.452C582.247 131.802 581.764 132.313 581.413 132.986C581.072 133.649 580.897 134.449 580.888 135.386Z" fill="#C9A84C"/>
<path d="M340.906 170.182H344.858V184.436C344.858 185.999 344.489 187.373 343.75 188.559C343.018 189.745 341.989 190.672 340.661 191.339C339.332 192 337.781 192.33 336.005 192.33C334.222 192.33 332.667 192 331.339 191.339C330.011 190.672 328.981 189.745 328.249 188.559C327.518 187.373 327.152 185.999 327.152 184.436V170.182H331.104V184.106C331.104 185.015 331.303 185.825 331.701 186.535C332.106 187.245 332.674 187.803 333.406 188.207C334.137 188.605 335.004 188.804 336.005 188.804C337.006 188.804 337.873 188.605 338.604 188.207C339.343 187.803 339.911 187.245 340.309 186.535C340.707 185.825 340.906 185.015 340.906 184.106V170.182ZM356.44 182.412V192H352.583V175.636H356.27V178.417H356.461C356.838 177.501 357.438 176.773 358.262 176.233C359.093 175.693 360.119 175.423 361.341 175.423C362.47 175.423 363.454 175.665 364.292 176.148C365.137 176.631 365.79 177.33 366.252 178.246C366.721 179.163 366.951 180.274 366.944 181.581V192H363.088V182.178C363.088 181.084 362.804 180.228 362.235 179.61C361.674 178.992 360.897 178.683 359.902 178.683C359.228 178.683 358.628 178.832 358.102 179.131C357.583 179.422 357.175 179.844 356.877 180.398C356.586 180.952 356.44 181.624 356.44 182.412ZM374.465 192V175.636H378.321V192H374.465ZM376.404 173.314C375.793 173.314 375.267 173.112 374.827 172.707C374.387 172.295 374.166 171.801 374.166 171.226C374.166 170.643 374.387 170.15 374.827 169.745C375.267 169.333 375.793 169.127 376.404 169.127C377.022 169.127 377.547 169.333 377.98 169.745C378.421 170.15 378.641 170.643 378.641 171.226C378.641 171.801 378.421 172.295 377.98 172.707C377.547 173.112 377.022 173.314 376.404 173.314ZM394.058 175.636V178.619H384.651V175.636H394.058ZM386.974 171.716H390.83V187.078C390.83 187.597 390.908 187.994 391.065 188.271C391.228 188.541 391.441 188.726 391.704 188.825C391.967 188.925 392.258 188.974 392.577 188.974C392.819 188.974 393.039 188.957 393.238 188.921C393.444 188.886 393.6 188.854 393.707 188.825L394.356 191.84C394.15 191.911 393.856 191.989 393.472 192.075C393.096 192.16 392.634 192.21 392.087 192.224C391.121 192.252 390.251 192.107 389.477 191.787C388.703 191.46 388.089 190.956 387.634 190.274C387.187 189.592 386.967 188.74 386.974 187.717V171.716ZM407.952 192.32C406.311 192.32 404.894 191.979 403.701 191.297C402.515 190.608 401.603 189.635 400.963 188.378C400.324 187.114 400.005 185.626 400.005 183.914C400.005 182.231 400.324 180.754 400.963 179.482C401.61 178.204 402.512 177.21 403.669 176.499C404.827 175.782 406.187 175.423 407.75 175.423C408.758 175.423 409.71 175.587 410.605 175.913C411.507 176.233 412.302 176.73 412.991 177.405C413.687 178.08 414.234 178.939 414.632 179.983C415.029 181.02 415.228 182.256 415.228 183.69V184.873H401.816V182.273H411.532C411.524 181.535 411.365 180.878 411.052 180.303C410.74 179.72 410.303 179.262 409.742 178.928C409.188 178.594 408.542 178.428 407.803 178.428C407.015 178.428 406.322 178.619 405.725 179.003C405.129 179.379 404.664 179.876 404.33 180.494C404.003 181.105 403.836 181.776 403.829 182.508V184.777C403.829 185.729 404.003 186.545 404.351 187.227C404.699 187.902 405.186 188.42 405.811 188.783C406.436 189.138 407.167 189.315 408.005 189.315C408.566 189.315 409.074 189.237 409.529 189.081C409.983 188.918 410.377 188.68 410.711 188.367C411.045 188.055 411.297 187.668 411.468 187.206L415.069 187.611C414.841 188.562 414.408 189.393 413.769 190.104C413.137 190.807 412.327 191.354 411.34 191.744C410.353 192.128 409.223 192.32 407.952 192.32ZM428.163 192.288C426.878 192.288 425.727 191.957 424.712 191.297C423.696 190.636 422.893 189.678 422.304 188.42C421.714 187.163 421.42 185.636 421.42 183.839C421.42 182.021 421.718 180.487 422.315 179.237C422.918 177.98 423.732 177.032 424.754 176.393C425.777 175.746 426.917 175.423 428.174 175.423C429.133 175.423 429.921 175.587 430.539 175.913C431.157 176.233 431.647 176.62 432.009 177.075C432.371 177.522 432.652 177.945 432.851 178.342H433.011V170.182H436.878V192H433.085V189.422H432.851C432.652 189.82 432.364 190.242 431.988 190.69C431.612 191.13 431.114 191.506 430.496 191.819C429.879 192.131 429.101 192.288 428.163 192.288ZM429.239 189.124C430.056 189.124 430.752 188.903 431.327 188.463C431.903 188.016 432.339 187.394 432.638 186.599C432.936 185.803 433.085 184.876 433.085 183.818C433.085 182.76 432.936 181.84 432.638 181.059C432.347 180.278 431.913 179.67 431.338 179.237C430.77 178.804 430.07 178.587 429.239 178.587C428.38 178.587 427.663 178.811 427.087 179.259C426.512 179.706 426.079 180.324 425.788 181.112C425.496 181.901 425.351 182.803 425.351 183.818C425.351 184.841 425.496 185.754 425.788 186.556C426.086 187.352 426.523 187.98 427.098 188.442C427.68 188.896 428.394 189.124 429.239 189.124ZM455.799 192V170.182H459.752V180.207H460.018L468.53 170.182H473.356L464.919 179.972L473.431 192H468.679L462.17 182.646L459.752 185.501V192H455.799ZM480.557 192V175.636H484.413V192H480.557ZM482.496 173.314C481.885 173.314 481.359 173.112 480.919 172.707C480.479 172.295 480.259 171.801 480.259 171.226C480.259 170.643 480.479 170.15 480.919 169.745C481.359 169.333 481.885 169.127 482.496 169.127C483.114 169.127 483.639 169.333 484.073 169.745C484.513 170.15 484.733 170.643 484.733 171.226C484.733 171.801 484.513 172.295 484.073 172.707C483.639 173.112 483.114 173.314 482.496 173.314ZM495.836 182.412V192H491.979V175.636H495.665V178.417H495.857C496.233 177.501 496.834 176.773 497.657 176.233C498.488 175.693 499.515 175.423 500.736 175.423C501.866 175.423 502.849 175.665 503.687 176.148C504.532 176.631 505.186 177.33 505.648 178.246C506.116 179.163 506.347 180.274 506.34 181.581V192H502.483V182.178C502.483 181.084 502.199 180.228 501.631 179.61C501.07 178.992 500.292 178.683 499.298 178.683C498.623 178.683 498.023 178.832 497.498 179.131C496.979 179.422 496.571 179.844 496.273 180.398C495.981 180.952 495.836 181.624 495.836 182.412ZM520.977 198.477C519.592 198.477 518.402 198.289 517.408 197.913C516.414 197.543 515.615 197.046 515.011 196.421C514.407 195.796 513.988 195.104 513.754 194.344L517.227 193.502C517.383 193.822 517.61 194.138 517.909 194.45C518.207 194.77 518.608 195.033 519.113 195.239C519.624 195.452 520.267 195.558 521.041 195.558C522.135 195.558 523.04 195.292 523.757 194.759C524.475 194.234 524.833 193.367 524.833 192.16V189.06H524.642C524.443 189.457 524.152 189.866 523.768 190.285C523.392 190.704 522.891 191.055 522.266 191.339C521.648 191.624 520.87 191.766 519.933 191.766C518.676 191.766 517.536 191.471 516.513 190.881C515.498 190.285 514.688 189.397 514.084 188.218C513.488 187.032 513.189 185.548 513.189 183.765C513.189 181.968 513.488 180.452 514.084 179.216C514.688 177.973 515.501 177.032 516.524 176.393C517.547 175.746 518.686 175.423 519.944 175.423C520.902 175.423 521.691 175.587 522.309 175.913C522.934 176.233 523.431 176.62 523.8 177.075C524.169 177.522 524.45 177.945 524.642 178.342H524.855V175.636H528.658V192.266C528.658 193.665 528.324 194.823 527.657 195.739C526.989 196.656 526.076 197.341 524.919 197.795C523.761 198.25 522.447 198.477 520.977 198.477ZM521.009 188.74C521.826 188.74 522.522 188.541 523.097 188.143C523.672 187.746 524.109 187.174 524.407 186.428C524.706 185.683 524.855 184.788 524.855 183.744C524.855 182.714 524.706 181.812 524.407 181.038C524.116 180.263 523.683 179.663 523.108 179.237C522.539 178.804 521.84 178.587 521.009 178.587C520.15 178.587 519.432 178.811 518.857 179.259C518.282 179.706 517.848 180.32 517.557 181.102C517.266 181.876 517.12 182.756 517.12 183.744C517.12 184.745 517.266 185.622 517.557 186.375C517.855 187.121 518.292 187.703 518.868 188.122C519.45 188.534 520.164 188.74 521.009 188.74ZM542.283 192.288C540.997 192.288 539.847 191.957 538.831 191.297C537.816 190.636 537.013 189.678 536.424 188.42C535.834 187.163 535.539 185.636 535.539 183.839C535.539 182.021 535.838 180.487 536.434 179.237C537.038 177.98 537.851 177.032 538.874 176.393C539.897 175.746 541.036 175.423 542.294 175.423C543.252 175.423 544.041 175.587 544.659 175.913C545.276 176.233 545.767 176.62 546.129 177.075C546.491 177.522 546.772 177.945 546.97 178.342H547.13V170.182H550.997V192H547.205V189.422H546.97C546.772 189.82 546.484 190.242 546.107 190.69C545.731 191.13 545.234 191.506 544.616 191.819C543.998 192.131 543.22 192.288 542.283 192.288ZM543.359 189.124C544.176 189.124 544.872 188.903 545.447 188.463C546.022 188.016 546.459 187.394 546.757 186.599C547.056 185.803 547.205 184.876 547.205 183.818C547.205 182.76 547.056 181.84 546.757 181.059C546.466 180.278 546.033 179.67 545.458 179.237C544.889 178.804 544.19 178.587 543.359 178.587C542.5 178.587 541.782 178.811 541.207 179.259C540.632 179.706 540.198 180.324 539.907 181.112C539.616 181.901 539.47 182.803 539.47 183.818C539.47 184.841 539.616 185.754 539.907 186.556C540.205 187.352 540.642 187.98 541.218 188.442C541.8 188.896 542.514 189.124 543.359 189.124ZM565.845 192.32C564.247 192.32 562.862 191.968 561.69 191.265C560.518 190.562 559.609 189.578 558.963 188.314C558.323 187.05 558.004 185.572 558.004 183.882C558.004 182.192 558.323 180.711 558.963 179.44C559.609 178.168 560.518 177.181 561.69 176.478C562.862 175.775 564.247 175.423 565.845 175.423C567.443 175.423 568.828 175.775 570 176.478C571.171 177.181 572.077 178.168 572.716 179.44C573.362 180.711 573.686 182.192 573.686 183.882C573.686 185.572 573.362 187.05 572.716 188.314C572.077 189.578 571.171 190.562 570 191.265C568.828 191.968 567.443 192.32 565.845 192.32ZM565.866 189.23C566.732 189.23 567.457 188.992 568.039 188.516C568.622 188.033 569.055 187.387 569.339 186.577C569.63 185.768 569.776 184.866 569.776 183.871C569.776 182.87 569.63 181.964 569.339 181.155C569.055 180.338 568.622 179.688 568.039 179.205C567.457 178.722 566.732 178.481 565.866 178.481C564.978 178.481 564.24 178.722 563.65 179.205C563.068 179.688 562.631 180.338 562.34 181.155C562.056 181.964 561.914 182.87 561.914 183.871C561.914 184.866 562.056 185.768 562.34 186.577C562.631 187.387 563.068 188.033 563.65 188.516C564.24 188.992 564.978 189.23 565.866 189.23ZM580.559 192V175.636H584.245V178.417H584.437C584.778 177.479 585.342 176.748 586.131 176.222C586.919 175.69 587.86 175.423 588.954 175.423C590.062 175.423 590.996 175.693 591.756 176.233C592.523 176.766 593.062 177.494 593.375 178.417H593.545C593.908 177.508 594.518 176.783 595.378 176.244C596.244 175.697 597.271 175.423 598.457 175.423C599.962 175.423 601.191 175.899 602.143 176.851C603.094 177.803 603.57 179.191 603.57 181.016V192H599.703V181.613C599.703 180.597 599.433 179.855 598.893 179.386C598.354 178.911 597.693 178.673 596.912 178.673C595.981 178.673 595.253 178.964 594.728 179.546C594.209 180.121 593.95 180.871 593.95 181.794V192H590.168V181.453C590.168 180.608 589.913 179.933 589.401 179.429C588.897 178.925 588.236 178.673 587.42 178.673C586.866 178.673 586.361 178.815 585.907 179.099C585.452 179.376 585.09 179.77 584.82 180.281C584.55 180.786 584.415 181.375 584.415 182.05V192H580.559Z" fill="white"/>
</svg>
