<svg width="650" height="200" viewBox="0 0 650 200" fill="none" xmlns="http://www.w3.org/2000/svg">
<rect width="650" height="200" fill="white"/>
<path d="M202.464 113.438C201.258 147.017 194.184 155.347 169.343 162.4C193.724 167.921 231.599 143.949 231.599 106.016V69.4249V30.988C211.249 42.5035 202.463 55.3529 202.464 80.8802V113.438Z" fill="#0D5C6B"/>
<path d="M116.067 107.715C116.067 139.967 142.213 166.113 174.465 166.113C202.258 166.113 225.515 146.697 231.415 120.689C232.363 124.977 232.863 129.433 232.863 134.007C232.863 167.934 205.36 195.438 171.432 195.438C137.504 195.438 110 167.934 110 134.007C110 124.455 112.18 115.412 116.069 107.349C116.069 107.471 116.067 107.593 116.067 107.715Z" fill="#0D5C6B"/>
<path d="M202.617 60.5824C202.617 13.6604 259.506 18.1073 324.983 4C255.574 19.219 210.498 24.6807 202.617 60.5824Z" fill="#C9A84C"/>
<path d="M337.759 24.8182H343.23V43.0739C343.23 44.7614 342.851 46.2273 342.092 47.4716C341.342 48.7159 340.298 49.6747 338.96 50.348C337.622 51.0213 336.067 51.358 334.294 51.358C332.717 51.358 331.286 51.081 329.999 50.527C328.72 49.9645 327.706 49.1122 326.956 47.9702C326.206 46.8196 325.835 45.375 325.844 43.6364H331.354C331.371 44.3267 331.511 44.919 331.776 45.4134C332.048 45.8991 332.419 46.2741 332.888 46.5384C333.365 46.794 333.928 46.9219 334.575 46.9219C335.257 46.9219 335.832 46.777 336.301 46.4872C336.778 46.1889 337.141 45.7543 337.388 45.1832C337.635 44.6122 337.759 43.9091 337.759 43.0739V24.8182ZM356.904 51.3707C355.651 51.3707 354.535 51.1534 353.555 50.7188C352.574 50.2756 351.799 49.6236 351.228 48.7628C350.665 47.8935 350.384 46.8111 350.384 45.5156C350.384 44.4247 350.584 43.5085 350.985 42.767C351.386 42.0256 351.931 41.429 352.621 40.9773C353.312 40.5256 354.096 40.1847 354.974 39.9545C355.86 39.7244 356.789 39.5625 357.761 39.4688C358.903 39.3494 359.823 39.2386 360.522 39.1364C361.221 39.0256 361.728 38.8636 362.043 38.6506C362.359 38.4375 362.516 38.1222 362.516 37.7045V37.6278C362.516 36.8182 362.261 36.1918 361.749 35.7486C361.246 35.3054 360.53 35.0838 359.601 35.0838C358.621 35.0838 357.841 35.3011 357.262 35.7358C356.682 36.1619 356.299 36.6989 356.111 37.3466L351.074 36.9375C351.33 35.7443 351.833 34.7131 352.583 33.8438C353.333 32.9659 354.3 32.2926 355.485 31.8239C356.678 31.3466 358.059 31.108 359.627 31.108C360.718 31.108 361.762 31.2358 362.759 31.4915C363.765 31.7472 364.655 32.1435 365.431 32.6804C366.215 33.2173 366.833 33.9077 367.285 34.7514C367.736 35.5866 367.962 36.5881 367.962 37.7557V51H362.797V48.277H362.644C362.329 48.8906 361.907 49.4318 361.378 49.9006C360.85 50.3608 360.215 50.723 359.474 50.9872C358.732 51.2429 357.876 51.3707 356.904 51.3707ZM358.464 47.6122C359.265 47.6122 359.972 47.4545 360.586 47.1392C361.199 46.8153 361.681 46.3807 362.03 45.8352C362.38 45.2898 362.555 44.6719 362.555 43.9815V41.8977C362.384 42.0085 362.15 42.1108 361.851 42.2045C361.562 42.2898 361.234 42.3707 360.867 42.4474C360.501 42.5156 360.134 42.5795 359.768 42.6392C359.401 42.6903 359.069 42.7372 358.77 42.7798C358.131 42.8736 357.573 43.0227 357.096 43.2273C356.618 43.4318 356.248 43.7088 355.984 44.0582C355.719 44.3991 355.587 44.8253 355.587 45.3366C355.587 46.0781 355.856 46.6449 356.393 47.0369C356.938 47.4205 357.628 47.6122 358.464 47.6122ZM386.347 31.3636V35.4545H374.228V31.3636H386.347ZM377.002 51V29.9446C377.002 28.5213 377.279 27.3409 377.833 26.4034C378.395 25.4659 379.162 24.7628 380.134 24.294C381.106 23.8253 382.209 23.5909 383.445 23.5909C384.28 23.5909 385.043 23.6548 385.733 23.7827C386.432 23.9105 386.952 24.0256 387.293 24.1278L386.321 28.2188C386.108 28.1506 385.844 28.0866 385.529 28.027C385.222 27.9673 384.907 27.9375 384.583 27.9375C383.782 27.9375 383.223 28.125 382.908 28.5C382.593 28.8665 382.435 29.3821 382.435 30.0469V51H377.002ZM403.834 31.3636V35.4545H391.714V31.3636H403.834ZM394.489 51V29.9446C394.489 28.5213 394.766 27.3409 395.32 26.4034C395.882 25.4659 396.649 24.7628 397.621 24.294C398.592 23.8253 399.696 23.5909 400.932 23.5909C401.767 23.5909 402.53 23.6548 403.22 23.7827C403.919 23.9105 404.439 24.0256 404.78 24.1278L403.808 28.2188C403.595 28.1506 403.331 28.0866 403.016 28.027C402.709 27.9673 402.393 27.9375 402.07 27.9375C401.268 27.9375 400.71 28.125 400.395 28.5C400.079 28.8665 399.922 29.3821 399.922 30.0469V51H394.489ZM416.207 39.6477V51H410.761V31.3636H415.951V34.8281H416.181C416.616 33.6861 417.345 32.7827 418.367 32.1179C419.39 31.4446 420.63 31.108 422.088 31.108C423.451 31.108 424.64 31.4062 425.654 32.0028C426.668 32.5994 427.457 33.4517 428.019 34.5597C428.582 35.6591 428.863 36.9716 428.863 38.4972V51H423.417V39.4688C423.426 38.267 423.119 37.3295 422.497 36.6562C421.874 35.9744 421.018 35.6335 419.927 35.6335C419.194 35.6335 418.546 35.7912 417.984 36.1065C417.43 36.4219 416.995 36.8821 416.68 37.4872C416.373 38.0838 416.215 38.804 416.207 39.6477ZM442.355 51.3707C441.102 51.3707 439.985 51.1534 439.005 50.7188C438.025 50.2756 437.25 49.6236 436.679 48.7628C436.116 47.8935 435.835 46.8111 435.835 45.5156C435.835 44.4247 436.035 43.5085 436.436 42.767C436.836 42.0256 437.382 41.429 438.072 40.9773C438.762 40.5256 439.547 40.1847 440.424 39.9545C441.311 39.7244 442.24 39.5625 443.211 39.4688C444.353 39.3494 445.274 39.2386 445.973 39.1364C446.672 39.0256 447.179 38.8636 447.494 38.6506C447.809 38.4375 447.967 38.1222 447.967 37.7045V37.6278C447.967 36.8182 447.711 36.1918 447.2 35.7486C446.697 35.3054 445.981 35.0838 445.052 35.0838C444.072 35.0838 443.292 35.3011 442.713 35.7358C442.133 36.1619 441.75 36.6989 441.562 37.3466L436.525 36.9375C436.781 35.7443 437.284 34.7131 438.034 33.8438C438.784 32.9659 439.751 32.2926 440.936 31.8239C442.129 31.3466 443.51 31.108 445.078 31.108C446.169 31.108 447.213 31.2358 448.21 31.4915C449.216 31.7472 450.106 32.1435 450.882 32.6804C451.666 33.2173 452.284 33.9077 452.735 34.7514C453.187 35.5866 453.413 36.5881 453.413 37.7557V51H448.248V48.277H448.095C447.779 48.8906 447.358 49.4318 446.829 49.9006C446.301 50.3608 445.666 50.723 444.924 50.9872C444.183 51.2429 443.326 51.3707 442.355 51.3707ZM443.914 47.6122C444.716 47.6122 445.423 47.4545 446.037 47.1392C446.65 46.8153 447.132 46.3807 447.481 45.8352C447.831 45.2898 448.005 44.6719 448.005 43.9815V41.8977C447.835 42.0085 447.6 42.1108 447.302 42.2045C447.012 42.2898 446.684 42.3707 446.318 42.4474C445.951 42.5156 445.585 42.5795 445.218 42.6392C444.852 42.6903 444.52 42.7372 444.221 42.7798C443.582 42.8736 443.024 43.0227 442.547 43.2273C442.069 43.4318 441.699 43.7088 441.434 44.0582C441.17 44.3991 441.038 44.8253 441.038 45.3366C441.038 46.0781 441.306 46.6449 441.843 47.0369C442.389 47.4205 443.079 47.6122 443.914 47.6122ZM327.276 68.8182H334.102L341.312 86.4091H341.619L348.83 68.8182H355.656V95H350.287V77.9588H350.07L343.294 94.8722H339.638L332.862 77.8949H332.645V95H327.276V68.8182ZM376.307 86.6392V75.3636H381.753V95H376.524V91.4332H376.32C375.877 92.5838 375.139 93.5085 374.108 94.2074C373.085 94.9062 371.837 95.2557 370.362 95.2557C369.05 95.2557 367.895 94.9574 366.898 94.3608C365.901 93.7642 365.121 92.9162 364.558 91.8168C364.004 90.7173 363.723 89.4006 363.715 87.8665V75.3636H369.161V86.8949C369.169 88.054 369.48 88.9702 370.094 89.6435C370.708 90.3168 371.53 90.6534 372.561 90.6534C373.218 90.6534 373.831 90.5043 374.402 90.206C374.973 89.8991 375.433 89.4474 375.783 88.8509C376.141 88.2543 376.316 87.517 376.307 86.6392ZM406.047 80.9631L401.062 81.2699C400.976 80.8437 400.793 80.4602 400.512 80.1193C400.231 79.7699 399.86 79.4929 399.4 79.2884C398.948 79.0753 398.407 78.9688 397.776 78.9688C396.932 78.9688 396.221 79.1477 395.641 79.5057C395.062 79.8551 394.772 80.3239 394.772 80.9119C394.772 81.3807 394.959 81.777 395.334 82.1009C395.709 82.4247 396.353 82.6847 397.265 82.8807L400.819 83.5966C402.728 83.9886 404.151 84.6193 405.088 85.4886C406.026 86.358 406.495 87.5 406.495 88.9148C406.495 90.2017 406.115 91.331 405.357 92.3026C404.607 93.2741 403.576 94.0327 402.263 94.5781C400.959 95.1151 399.455 95.3835 397.75 95.3835C395.151 95.3835 393.08 94.8423 391.537 93.7599C390.003 92.669 389.104 91.1861 388.84 89.3111L394.196 89.0298C394.358 89.8224 394.75 90.4276 395.373 90.8452C395.995 91.2543 396.792 91.4588 397.763 91.4588C398.718 91.4588 399.485 91.2756 400.064 90.9091C400.652 90.5341 400.951 90.0526 400.959 89.4645C400.951 88.9702 400.742 88.5653 400.333 88.25C399.924 87.9261 399.293 87.679 398.441 87.5085L395.04 86.831C393.123 86.4474 391.695 85.7827 390.758 84.8366C389.829 83.8906 389.364 82.6847 389.364 81.2188C389.364 79.9574 389.705 78.8707 390.387 77.9588C391.077 77.0469 392.044 76.3438 393.289 75.8494C394.542 75.3551 396.008 75.108 397.687 75.108C400.167 75.108 402.118 75.6321 403.542 76.6804C404.973 77.7287 405.809 79.1562 406.047 80.9631ZM418.97 68.8182V95H413.524V68.8182H418.97ZM426.933 95V75.3636H432.379V95H426.933ZM429.668 72.8324C428.859 72.8324 428.164 72.5639 427.585 72.027C427.014 71.4815 426.728 70.8295 426.728 70.071C426.728 69.321 427.014 68.6776 427.585 68.1406C428.164 67.5952 428.859 67.3224 429.668 67.3224C430.478 67.3224 431.168 67.5952 431.739 68.1406C432.319 68.6776 432.609 69.321 432.609 70.071C432.609 70.8295 432.319 71.4815 431.739 72.027C431.168 72.5639 430.478 72.8324 429.668 72.8324ZM440.341 95V75.3636H445.532V78.8281H445.762C446.171 77.6776 446.853 76.7699 447.807 76.1051C448.762 75.4403 449.904 75.108 451.233 75.108C452.58 75.108 453.726 75.4446 454.672 76.1179C455.618 76.7827 456.249 77.6861 456.564 78.8281H456.769C457.169 77.7031 457.894 76.804 458.942 76.1307C459.999 75.4489 461.248 75.108 462.688 75.108C464.52 75.108 466.007 75.6918 467.15 76.8594C468.3 78.0185 468.875 79.6634 468.875 81.794V95H463.442V82.8679C463.442 81.777 463.152 80.9588 462.573 80.4134C461.993 79.8679 461.269 79.5952 460.4 79.5952C459.411 79.5952 458.64 79.9105 458.086 80.5412C457.532 81.1634 457.255 81.9858 457.255 83.0085V95H451.975V82.7528C451.975 81.7898 451.698 81.0227 451.144 80.4517C450.598 79.8807 449.878 79.5952 448.983 79.5952C448.378 79.5952 447.833 79.7486 447.347 80.0554C446.87 80.3537 446.49 80.7756 446.209 81.321C445.928 81.858 445.787 82.4886 445.787 83.2131V95H440.341ZM331.788 139H325.857L334.895 112.818H342.028L351.054 139H345.122L338.564 118.801H338.359L331.788 139ZM331.418 128.709H345.429V133.03H331.418V128.709ZM373.584 124.963L368.598 125.27C368.513 124.844 368.33 124.46 368.049 124.119C367.767 123.77 367.397 123.493 366.936 123.288C366.485 123.075 365.943 122.969 365.313 122.969C364.469 122.969 363.757 123.148 363.178 123.506C362.598 123.855 362.308 124.324 362.308 124.912C362.308 125.381 362.496 125.777 362.871 126.101C363.246 126.425 363.889 126.685 364.801 126.881L368.355 127.597C370.264 127.989 371.688 128.619 372.625 129.489C373.563 130.358 374.031 131.5 374.031 132.915C374.031 134.202 373.652 135.331 372.894 136.303C372.144 137.274 371.112 138.033 369.8 138.578C368.496 139.115 366.992 139.384 365.287 139.384C362.688 139.384 360.617 138.842 359.074 137.76C357.54 136.669 356.641 135.186 356.377 133.311L361.733 133.03C361.895 133.822 362.287 134.428 362.909 134.845C363.531 135.254 364.328 135.459 365.3 135.459C366.254 135.459 367.022 135.276 367.601 134.909C368.189 134.534 368.487 134.053 368.496 133.464C368.487 132.97 368.279 132.565 367.87 132.25C367.46 131.926 366.83 131.679 365.977 131.509L362.577 130.831C360.659 130.447 359.232 129.783 358.294 128.837C357.365 127.891 356.901 126.685 356.901 125.219C356.901 123.957 357.242 122.871 357.924 121.959C358.614 121.047 359.581 120.344 360.825 119.849C362.078 119.355 363.544 119.108 365.223 119.108C367.703 119.108 369.655 119.632 371.078 120.68C372.51 121.729 373.345 123.156 373.584 124.963ZM397.399 124.963L392.413 125.27C392.328 124.844 392.145 124.46 391.863 124.119C391.582 123.77 391.211 123.493 390.751 123.288C390.299 123.075 389.758 122.969 389.128 122.969C388.284 122.969 387.572 123.148 386.993 123.506C386.413 123.855 386.123 124.324 386.123 124.912C386.123 125.381 386.311 125.777 386.686 126.101C387.061 126.425 387.704 126.685 388.616 126.881L392.17 127.597C394.079 127.989 395.503 128.619 396.44 129.489C397.378 130.358 397.846 131.5 397.846 132.915C397.846 134.202 397.467 135.331 396.709 136.303C395.959 137.274 394.927 138.033 393.615 138.578C392.311 139.115 390.807 139.384 389.102 139.384C386.503 139.384 384.432 138.842 382.889 137.76C381.355 136.669 380.456 135.186 380.191 133.311L385.548 133.03C385.71 133.822 386.102 134.428 386.724 134.845C387.346 135.254 388.143 135.459 389.115 135.459C390.069 135.459 390.836 135.276 391.416 134.909C392.004 134.534 392.302 134.053 392.311 133.464C392.302 132.97 392.093 132.565 391.684 132.25C391.275 131.926 390.645 131.679 389.792 131.509L386.392 130.831C384.474 130.447 383.047 129.783 382.109 128.837C381.18 127.891 380.716 126.685 380.716 125.219C380.716 123.957 381.057 122.871 381.738 121.959C382.429 121.047 383.396 120.344 384.64 119.849C385.893 119.355 387.359 119.108 389.038 119.108C391.518 119.108 393.47 119.632 394.893 120.68C396.325 121.729 397.16 123.156 397.399 124.963ZM413.748 139.384C411.762 139.384 410.045 138.962 408.596 138.118C407.155 137.266 406.043 136.081 405.259 134.564C404.475 133.038 404.083 131.27 404.083 129.259C404.083 127.23 404.475 125.457 405.259 123.94C406.043 122.415 407.155 121.23 408.596 120.386C410.045 119.534 411.762 119.108 413.748 119.108C415.734 119.108 417.447 119.534 418.887 120.386C420.336 121.23 421.452 122.415 422.236 123.94C423.021 125.457 423.413 127.23 423.413 129.259C423.413 131.27 423.021 133.038 422.236 134.564C421.452 136.081 420.336 137.266 418.887 138.118C417.447 138.962 415.734 139.384 413.748 139.384ZM413.773 135.165C414.677 135.165 415.431 134.909 416.036 134.398C416.641 133.878 417.097 133.17 417.404 132.276C417.719 131.381 417.877 130.362 417.877 129.22C417.877 128.078 417.719 127.06 417.404 126.165C417.097 125.27 416.641 124.562 416.036 124.043C415.431 123.523 414.677 123.263 413.773 123.263C412.861 123.263 412.094 123.523 411.472 124.043C410.859 124.562 410.394 125.27 410.079 126.165C409.772 127.06 409.619 128.078 409.619 129.22C409.619 130.362 409.772 131.381 410.079 132.276C410.394 133.17 410.859 133.878 411.472 134.398C412.094 134.909 412.861 135.165 413.773 135.165ZM439.426 139.384C437.415 139.384 435.684 138.957 434.236 138.105C432.795 137.244 431.687 136.051 430.912 134.526C430.145 133 429.761 131.244 429.761 129.259C429.761 127.247 430.149 125.483 430.925 123.966C431.709 122.44 432.821 121.251 434.261 120.399C435.701 119.538 437.415 119.108 439.4 119.108C441.113 119.108 442.613 119.419 443.9 120.041C445.187 120.663 446.206 121.537 446.956 122.662C447.706 123.787 448.119 125.108 448.196 126.625H443.057C442.912 125.645 442.528 124.857 441.906 124.26C441.292 123.655 440.487 123.352 439.49 123.352C438.646 123.352 437.909 123.582 437.278 124.043C436.656 124.494 436.17 125.155 435.821 126.024C435.471 126.893 435.297 127.946 435.297 129.182C435.297 130.435 435.467 131.5 435.808 132.378C436.157 133.256 436.648 133.925 437.278 134.385C437.909 134.845 438.646 135.075 439.49 135.075C440.112 135.075 440.67 134.947 441.165 134.692C441.667 134.436 442.081 134.065 442.405 133.58C442.737 133.085 442.954 132.493 443.057 131.803H448.196C448.111 133.303 447.701 134.624 446.969 135.766C446.244 136.899 445.243 137.786 443.964 138.425C442.686 139.064 441.173 139.384 439.426 139.384ZM455.283 139V119.364H460.729V139H455.283ZM458.018 116.832C457.209 116.832 456.514 116.564 455.935 116.027C455.364 115.482 455.078 114.83 455.078 114.071C455.078 113.321 455.364 112.678 455.935 112.141C456.514 111.595 457.209 111.322 458.018 111.322C458.828 111.322 459.518 111.595 460.089 112.141C460.669 112.678 460.959 113.321 460.959 114.071C460.959 114.83 460.669 115.482 460.089 116.027C459.518 116.564 458.828 116.832 458.018 116.832ZM474.291 139.371C473.038 139.371 471.921 139.153 470.941 138.719C469.961 138.276 469.186 137.624 468.615 136.763C468.052 135.893 467.771 134.811 467.771 133.516C467.771 132.425 467.971 131.509 468.372 130.767C468.772 130.026 469.318 129.429 470.008 128.977C470.698 128.526 471.482 128.185 472.36 127.955C473.247 127.724 474.176 127.562 475.147 127.469C476.289 127.349 477.21 127.239 477.909 127.136C478.607 127.026 479.115 126.864 479.43 126.651C479.745 126.437 479.903 126.122 479.903 125.705V125.628C479.903 124.818 479.647 124.192 479.136 123.749C478.633 123.305 477.917 123.084 476.988 123.084C476.008 123.084 475.228 123.301 474.649 123.736C474.069 124.162 473.686 124.699 473.498 125.347L468.461 124.938C468.717 123.744 469.22 122.713 469.97 121.844C470.72 120.966 471.687 120.293 472.872 119.824C474.065 119.347 475.446 119.108 477.014 119.108C478.105 119.108 479.149 119.236 480.146 119.491C481.151 119.747 482.042 120.143 482.818 120.68C483.602 121.217 484.22 121.908 484.671 122.751C485.123 123.587 485.349 124.588 485.349 125.756V139H480.184V136.277H480.031C479.715 136.891 479.294 137.432 478.765 137.901C478.237 138.361 477.602 138.723 476.86 138.987C476.119 139.243 475.262 139.371 474.291 139.371ZM475.85 135.612C476.651 135.612 477.359 135.455 477.973 135.139C478.586 134.815 479.068 134.381 479.417 133.835C479.767 133.29 479.941 132.672 479.941 131.982V129.898C479.771 130.009 479.536 130.111 479.238 130.205C478.948 130.29 478.62 130.371 478.254 130.447C477.887 130.516 477.521 130.58 477.154 130.639C476.788 130.69 476.455 130.737 476.157 130.78C475.518 130.874 474.96 131.023 474.482 131.227C474.005 131.432 473.634 131.709 473.37 132.058C473.106 132.399 472.974 132.825 472.974 133.337C472.974 134.078 473.242 134.645 473.779 135.037C474.325 135.42 475.015 135.612 475.85 135.612ZM503.619 119.364V123.455H491.793V119.364H503.619ZM494.478 114.659H499.924V132.966C499.924 133.469 500.001 133.861 500.154 134.142C500.308 134.415 500.521 134.607 500.793 134.717C501.075 134.828 501.399 134.884 501.765 134.884C502.021 134.884 502.276 134.862 502.532 134.82C502.788 134.768 502.984 134.73 503.12 134.705L503.977 138.757C503.704 138.842 503.32 138.94 502.826 139.051C502.332 139.17 501.731 139.243 501.024 139.268C499.711 139.32 498.56 139.145 497.572 138.744C496.592 138.344 495.829 137.722 495.283 136.878C494.738 136.034 494.47 134.969 494.478 133.682V114.659ZM510.766 139V119.364H516.212V139H510.766ZM513.502 116.832C512.692 116.832 511.998 116.564 511.418 116.027C510.847 115.482 510.562 114.83 510.562 114.071C510.562 113.321 510.847 112.678 511.418 112.141C511.998 111.595 512.692 111.322 513.502 111.322C514.312 111.322 515.002 111.595 515.573 112.141C516.153 112.678 516.442 113.321 516.442 114.071C516.442 114.83 516.153 115.482 515.573 116.027C515.002 116.564 514.312 116.832 513.502 116.832ZM533.047 139.384C531.061 139.384 529.344 138.962 527.895 138.118C526.455 137.266 525.342 136.081 524.558 134.564C523.774 133.038 523.382 131.27 523.382 129.259C523.382 127.23 523.774 125.457 524.558 123.94C525.342 122.415 526.455 121.23 527.895 120.386C529.344 119.534 531.061 119.108 533.047 119.108C535.033 119.108 536.746 119.534 538.186 120.386C539.635 121.23 540.752 122.415 541.536 123.94C542.32 125.457 542.712 127.23 542.712 129.259C542.712 131.27 542.32 133.038 541.536 134.564C540.752 136.081 539.635 137.266 538.186 138.118C536.746 138.962 535.033 139.384 533.047 139.384ZM533.073 135.165C533.976 135.165 534.73 134.909 535.335 134.398C535.94 133.878 536.396 133.17 536.703 132.276C537.019 131.381 537.176 130.362 537.176 129.22C537.176 128.078 537.019 127.06 536.703 126.165C536.396 125.27 535.94 124.562 535.335 124.043C534.73 123.523 533.976 123.263 533.073 123.263C532.161 123.263 531.394 123.523 530.771 124.043C530.158 124.562 529.693 125.27 529.378 126.165C529.071 127.06 528.918 128.078 528.918 129.22C528.918 130.362 529.071 131.381 529.378 132.276C529.693 133.17 530.158 133.878 530.771 134.398C531.394 134.909 532.161 135.165 533.073 135.165ZM555.299 127.648V139H549.853V119.364H555.043V122.828H555.273C555.708 121.686 556.437 120.783 557.46 120.118C558.482 119.445 559.722 119.108 561.18 119.108C562.543 119.108 563.732 119.406 564.746 120.003C565.761 120.599 566.549 121.452 567.112 122.56C567.674 123.659 567.955 124.972 567.955 126.497V139H562.509V127.469C562.518 126.267 562.211 125.33 561.589 124.656C560.967 123.974 560.11 123.634 559.019 123.634C558.286 123.634 557.638 123.791 557.076 124.107C556.522 124.422 556.087 124.882 555.772 125.487C555.465 126.084 555.308 126.804 555.299 127.648Z" fill="#0D5C6B"/>
<path d="M335.952 155.455H338.153V165.021C338.153 166.039 337.914 166.941 337.436 167.727C336.958 168.509 336.286 169.124 335.419 169.574C334.553 170.019 333.537 170.241 332.372 170.241C331.212 170.241 330.199 170.019 329.332 169.574C328.466 169.124 327.794 168.509 327.315 167.727C326.837 166.941 326.598 166.039 326.598 165.021V155.455H328.793V164.844C328.793 165.502 328.937 166.087 329.226 166.598C329.519 167.109 329.934 167.512 330.469 167.805C331.004 168.094 331.638 168.239 332.372 168.239C333.111 168.239 333.748 168.094 334.283 167.805C334.822 167.512 335.234 167.109 335.518 166.598C335.807 166.087 335.952 165.502 335.952 164.844V155.455ZM345.697 163.523V170H343.574V159.091H345.612V160.866H345.747C345.998 160.289 346.391 159.825 346.926 159.474C347.466 159.124 348.145 158.949 348.964 158.949C349.708 158.949 350.359 159.105 350.917 159.418C351.476 159.725 351.909 160.185 352.217 160.795C352.525 161.406 352.679 162.161 352.679 163.061V170H350.555V163.317C350.555 162.526 350.349 161.908 349.937 161.463C349.525 161.013 348.96 160.788 348.24 160.788C347.747 160.788 347.309 160.895 346.926 161.108C346.547 161.321 346.246 161.634 346.024 162.045C345.806 162.453 345.697 162.945 345.697 163.523ZM357.927 170V159.091H360.05V170H357.927ZM358.999 157.408C358.63 157.408 358.313 157.285 358.048 157.038C357.787 156.787 357.657 156.489 357.657 156.143C357.657 155.793 357.787 155.495 358.048 155.249C358.313 154.998 358.63 154.872 358.999 154.872C359.369 154.872 359.683 154.998 359.944 155.249C360.209 155.495 360.342 155.793 360.342 156.143C360.342 156.489 360.209 156.787 359.944 157.038C359.683 157.285 359.369 157.408 358.999 157.408ZM370.4 159.091V160.795H364.441V159.091H370.4ZM366.039 156.477H368.162V166.797C368.162 167.209 368.224 167.519 368.347 167.727C368.47 167.931 368.629 168.071 368.823 168.146C369.022 168.217 369.237 168.253 369.469 168.253C369.64 168.253 369.789 168.241 369.917 168.217C370.044 168.194 370.144 168.175 370.215 168.161L370.598 169.915C370.475 169.962 370.3 170.009 370.073 170.057C369.846 170.109 369.562 170.137 369.221 170.142C368.662 170.152 368.141 170.052 367.658 169.844C367.175 169.635 366.785 169.313 366.486 168.878C366.188 168.442 366.039 167.895 366.039 167.237V156.477ZM379.733 170.22C378.658 170.22 377.733 169.991 376.956 169.531C376.184 169.067 375.588 168.416 375.166 167.578C374.75 166.735 374.541 165.748 374.541 164.616C374.541 163.499 374.75 162.514 375.166 161.662C375.588 160.81 376.175 160.144 376.928 159.666C377.685 159.188 378.571 158.949 379.584 158.949C380.2 158.949 380.796 159.051 381.374 159.254C381.951 159.458 382.47 159.777 382.929 160.213C383.388 160.649 383.751 161.214 384.016 161.911C384.281 162.602 384.414 163.442 384.414 164.432V165.185H375.742V163.594H382.333C382.333 163.035 382.219 162.54 381.992 162.109C381.764 161.674 381.445 161.33 381.033 161.08C380.626 160.829 380.147 160.703 379.598 160.703C379.002 160.703 378.481 160.85 378.036 161.143C377.595 161.432 377.254 161.811 377.013 162.28C376.776 162.744 376.658 163.248 376.658 163.793V165.036C376.658 165.765 376.786 166.385 377.041 166.896C377.302 167.408 377.664 167.798 378.128 168.068C378.592 168.333 379.134 168.466 379.754 168.466C380.157 168.466 380.524 168.409 380.855 168.295C381.187 168.177 381.473 168.002 381.715 167.77C381.956 167.538 382.141 167.251 382.269 166.911L384.279 167.273C384.118 167.865 383.829 168.383 383.412 168.828C383 169.268 382.482 169.612 381.857 169.858C381.236 170.099 380.529 170.22 379.733 170.22ZM393.254 170.213C392.373 170.213 391.587 169.988 390.896 169.538C390.209 169.084 389.669 168.437 389.276 167.599C388.888 166.757 388.694 165.746 388.694 164.567C388.694 163.388 388.89 162.379 389.283 161.541C389.681 160.703 390.226 160.062 390.917 159.616C391.608 159.171 392.392 158.949 393.268 158.949C393.945 158.949 394.489 159.062 394.901 159.29C395.318 159.512 395.64 159.773 395.867 160.071C396.099 160.369 396.279 160.632 396.407 160.859H396.535V155.455H398.658V170H396.585V168.303H396.407C396.279 168.535 396.094 168.8 395.853 169.098C395.616 169.396 395.29 169.657 394.873 169.879C394.456 170.102 393.916 170.213 393.254 170.213ZM393.722 168.402C394.333 168.402 394.849 168.241 395.271 167.919C395.697 167.592 396.019 167.14 396.237 166.562C396.459 165.985 396.57 165.312 396.57 164.545C396.57 163.788 396.461 163.125 396.244 162.557C396.026 161.989 395.706 161.546 395.285 161.229C394.863 160.911 394.343 160.753 393.722 160.753C393.083 160.753 392.55 160.919 392.124 161.25C391.698 161.581 391.376 162.034 391.158 162.607C390.945 163.179 390.839 163.826 390.839 164.545C390.839 165.275 390.948 165.93 391.165 166.513C391.383 167.095 391.705 167.557 392.131 167.898C392.562 168.234 393.093 168.402 393.722 168.402ZM411.953 170V155.455H414.147V162.401H414.325L420.426 155.455H423.188L417.322 162.003L423.21 170H420.568L415.866 163.501L414.147 165.476V170H411.953ZM428.147 170V159.091H430.271V170H428.147ZM429.22 157.408C428.85 157.408 428.533 157.285 428.268 157.038C428.007 156.787 427.877 156.489 427.877 156.143C427.877 155.793 428.007 155.495 428.268 155.249C428.533 154.998 428.85 154.872 429.22 154.872C429.589 154.872 429.904 154.998 430.164 155.249C430.429 155.495 430.562 155.793 430.562 156.143C430.562 156.489 430.429 156.787 430.164 157.038C429.904 157.285 429.589 157.408 429.22 157.408ZM437.651 163.523V170H435.528V159.091H437.566V160.866H437.701C437.952 160.289 438.345 159.825 438.88 159.474C439.42 159.124 440.099 158.949 440.918 158.949C441.662 158.949 442.313 159.105 442.871 159.418C443.43 159.725 443.863 160.185 444.171 160.795C444.479 161.406 444.633 162.161 444.633 163.061V170H442.509V163.317C442.509 162.526 442.303 161.908 441.891 161.463C441.479 161.013 440.913 160.788 440.194 160.788C439.701 160.788 439.263 160.895 438.88 161.108C438.501 161.321 438.2 161.634 437.978 162.045C437.76 162.453 437.651 162.945 437.651 163.523ZM454.455 174.318C453.588 174.318 452.842 174.205 452.217 173.977C451.597 173.75 451.09 173.449 450.697 173.075C450.304 172.701 450.011 172.292 449.817 171.847L451.642 171.094C451.77 171.302 451.94 171.522 452.153 171.754C452.371 171.991 452.665 172.192 453.034 172.358C453.408 172.524 453.889 172.607 454.476 172.607C455.281 172.607 455.946 172.41 456.472 172.017C456.997 171.629 457.26 171.009 457.26 170.156V168.011H457.125C456.997 168.243 456.813 168.501 456.571 168.786C456.334 169.07 456.008 169.316 455.591 169.524C455.174 169.732 454.632 169.837 453.964 169.837C453.103 169.837 452.326 169.635 451.635 169.233C450.948 168.826 450.404 168.227 450.001 167.436C449.604 166.641 449.405 165.663 449.405 164.503C449.405 163.343 449.601 162.348 449.994 161.52C450.392 160.691 450.937 160.057 451.628 159.616C452.319 159.171 453.103 158.949 453.979 158.949C454.656 158.949 455.203 159.062 455.619 159.29C456.036 159.512 456.36 159.773 456.592 160.071C456.829 160.369 457.011 160.632 457.139 160.859H457.295V159.091H459.376V170.241C459.376 171.179 459.159 171.948 458.723 172.55C458.287 173.151 457.698 173.596 456.955 173.885C456.216 174.174 455.383 174.318 454.455 174.318ZM454.433 168.075C455.044 168.075 455.56 167.933 455.982 167.649C456.408 167.36 456.73 166.948 456.947 166.413C457.17 165.874 457.281 165.227 457.281 164.474C457.281 163.741 457.172 163.094 456.955 162.536C456.737 161.977 456.417 161.541 455.996 161.229C455.574 160.911 455.054 160.753 454.433 160.753C453.794 160.753 453.261 160.919 452.835 161.25C452.409 161.577 452.087 162.022 451.869 162.585C451.656 163.149 451.55 163.778 451.55 164.474C451.55 165.189 451.659 165.817 451.876 166.357C452.094 166.896 452.416 167.318 452.842 167.621C453.273 167.924 453.804 168.075 454.433 168.075ZM468.708 170.213C467.828 170.213 467.042 169.988 466.35 169.538C465.664 169.084 465.124 168.437 464.731 167.599C464.343 166.757 464.149 165.746 464.149 164.567C464.149 163.388 464.345 162.379 464.738 161.541C465.136 160.703 465.68 160.062 466.372 159.616C467.063 159.171 467.846 158.949 468.722 158.949C469.4 158.949 469.944 159.062 470.356 159.29C470.773 159.512 471.095 159.773 471.322 160.071C471.554 160.369 471.734 160.632 471.862 160.859H471.989V155.455H474.113V170H472.039V168.303H471.862C471.734 168.535 471.549 168.8 471.308 169.098C471.071 169.396 470.744 169.657 470.328 169.879C469.911 170.102 469.371 170.213 468.708 170.213ZM469.177 168.402C469.788 168.402 470.304 168.241 470.725 167.919C471.151 167.592 471.473 167.14 471.691 166.562C471.914 165.985 472.025 165.312 472.025 164.545C472.025 163.788 471.916 163.125 471.698 162.557C471.48 161.989 471.161 161.546 470.739 161.229C470.318 160.911 469.797 160.753 469.177 160.753C468.538 160.753 468.005 160.919 467.579 161.25C467.153 161.581 466.831 162.034 466.613 162.607C466.4 163.179 466.293 163.826 466.293 164.545C466.293 165.275 466.402 165.93 466.62 166.513C466.838 167.095 467.16 167.557 467.586 167.898C468.017 168.234 468.547 168.402 469.177 168.402ZM484.139 170.22C483.116 170.22 482.224 169.986 481.462 169.517C480.699 169.048 480.107 168.393 479.686 167.55C479.265 166.707 479.054 165.722 479.054 164.595C479.054 163.464 479.265 162.474 479.686 161.626C480.107 160.779 480.699 160.121 481.462 159.652C482.224 159.183 483.116 158.949 484.139 158.949C485.162 158.949 486.054 159.183 486.817 159.652C487.579 160.121 488.171 160.779 488.592 161.626C489.014 162.474 489.224 163.464 489.224 164.595C489.224 165.722 489.014 166.707 488.592 167.55C488.171 168.393 487.579 169.048 486.817 169.517C486.054 169.986 485.162 170.22 484.139 170.22ZM484.146 168.438C484.809 168.438 485.358 168.262 485.794 167.912C486.23 167.562 486.552 167.095 486.76 166.513C486.973 165.93 487.079 165.289 487.079 164.588C487.079 163.892 486.973 163.253 486.76 162.67C486.552 162.083 486.23 161.612 485.794 161.257C485.358 160.902 484.809 160.724 484.146 160.724C483.479 160.724 482.925 160.902 482.484 161.257C482.049 161.612 481.724 162.083 481.511 162.67C481.303 163.253 481.199 163.892 481.199 164.588C481.199 165.289 481.303 165.93 481.511 166.513C481.724 167.095 482.049 167.562 482.484 167.912C482.925 168.262 483.479 168.438 484.146 168.438ZM493.995 170V159.091H496.033V160.866H496.168C496.395 160.265 496.767 159.796 497.283 159.46C497.799 159.119 498.417 158.949 499.137 158.949C499.866 158.949 500.477 159.119 500.969 159.46C501.466 159.801 501.833 160.27 502.07 160.866H502.184C502.444 160.284 502.858 159.82 503.427 159.474C503.995 159.124 504.672 158.949 505.458 158.949C506.447 158.949 507.255 159.259 507.88 159.879C508.509 160.5 508.824 161.435 508.824 162.685V170H506.701V162.884C506.701 162.145 506.499 161.61 506.097 161.278C505.695 160.947 505.214 160.781 504.655 160.781C503.964 160.781 503.427 160.994 503.043 161.42C502.66 161.842 502.468 162.384 502.468 163.047V170H500.351V162.749C500.351 162.157 500.167 161.681 499.797 161.321C499.428 160.961 498.947 160.781 498.356 160.781C497.953 160.781 497.581 160.888 497.24 161.101C496.904 161.309 496.632 161.6 496.424 161.974C496.22 162.348 496.118 162.782 496.118 163.274V170H493.995Z" fill="#C9A84C"/>
</svg>
