<svg width="650" height="200" viewBox="0 0 650 200" fill="none" xmlns="http://www.w3.org/2000/svg">
<path d="M109.824 109.154C109.161 127.612 105.273 132.19 91.6187 136.067C105.02 139.102 125.839 125.925 125.839 105.074V84.9618V63.8344C114.653 70.164 109.824 77.2269 109.824 91.2584V109.154Z" fill="#0D5C6B"/>
<path d="M62.335 106.008C62.335 123.736 76.7065 138.108 94.4346 138.108C109.711 138.108 122.492 127.437 125.736 113.142C126.257 115.499 126.534 117.947 126.534 120.461C126.534 139.109 111.416 154.227 92.7676 154.227C74.1186 154.227 59.0002 139.109 59 120.461C59 115.209 60.1983 110.238 62.3369 105.805C62.3365 105.873 62.335 105.941 62.335 106.008Z" fill="#0D5C6B"/>
<path d="M109.909 80.1014C109.909 54.31 141.179 56.7543 177.169 49C139.017 57.3654 114.24 60.3675 109.909 80.1014Z" fill="#C9A84C"/>
<path d="M182.684 80.28C181.433 80.28 180.276 80.0373 179.212 79.552C178.167 79.0667 177.308 78.3667 176.636 77.452L178.708 74.96C179.249 75.7067 179.837 76.2667 180.472 76.64C181.125 77.0133 181.835 77.2 182.6 77.2C184.635 77.2 185.652 75.996 185.652 73.588V63.452H178.68V60.4H189.292V73.392C189.292 75.7067 188.723 77.4333 187.584 78.572C186.464 79.7107 184.831 80.28 182.684 80.28ZM203.274 80V76.976L203.078 76.332V71.04C203.078 70.0133 202.77 69.22 202.154 68.66C201.538 68.0813 200.604 67.792 199.354 67.792C198.514 67.792 197.683 67.9227 196.862 68.184C196.059 68.4453 195.378 68.8093 194.818 69.276L193.446 66.728C194.248 66.112 195.2 65.6547 196.302 65.356C197.422 65.0387 198.579 64.88 199.774 64.88C201.939 64.88 203.61 65.4027 204.786 66.448C205.98 67.4747 206.578 69.0707 206.578 71.236V80H203.274ZM198.57 80.196C197.45 80.196 196.47 80.0093 195.63 79.636C194.79 79.244 194.136 78.712 193.67 78.04C193.222 77.3493 192.998 76.5747 192.998 75.716C192.998 74.876 193.194 74.12 193.586 73.448C193.996 72.776 194.659 72.244 195.574 71.852C196.488 71.46 197.702 71.264 199.214 71.264H203.554V73.588H199.466C198.271 73.588 197.468 73.784 197.058 74.176C196.647 74.5493 196.442 75.016 196.442 75.576C196.442 76.2107 196.694 76.7147 197.198 77.088C197.702 77.4613 198.402 77.648 199.298 77.648C200.156 77.648 200.922 77.452 201.594 77.06C202.284 76.668 202.779 76.0893 203.078 75.324L203.666 77.424C203.33 78.3013 202.723 78.9827 201.846 79.468C200.987 79.9533 199.895 80.196 198.57 80.196ZM211.545 80V64.208C211.545 62.64 212.003 61.3893 212.917 60.456C213.851 59.504 215.176 59.028 216.893 59.028C217.509 59.028 218.088 59.0933 218.629 59.224C219.189 59.3547 219.656 59.56 220.029 59.84L219.077 62.472C218.816 62.2667 218.517 62.1173 218.181 62.024C217.845 61.912 217.5 61.856 217.145 61.856C216.417 61.856 215.867 62.0613 215.493 62.472C215.12 62.864 214.933 63.4613 214.933 64.264V65.944L215.045 67.512V80H211.545ZM209.081 67.96V65.16H219.049V67.96H209.081ZM221.963 80V64.208C221.963 62.64 222.421 61.3893 223.335 60.456C224.269 59.504 225.594 59.028 227.311 59.028C227.927 59.028 228.506 59.0933 229.047 59.224C229.607 59.3547 230.074 59.56 230.447 59.84L229.495 62.472C229.234 62.2667 228.935 62.1173 228.599 62.024C228.263 61.912 227.918 61.856 227.563 61.856C226.835 61.856 226.285 62.0613 225.911 62.472C225.538 62.864 225.351 63.4613 225.351 64.264V65.944L225.463 67.512V80H221.963ZM219.499 67.96V65.16H229.467V67.96H219.499ZM231.823 80V65.048H235.155V69.08L234.567 67.848C235.09 66.896 235.846 66.168 236.835 65.664C237.843 65.1413 239.001 64.88 240.307 64.88C241.502 64.88 242.566 65.1133 243.499 65.58C244.451 66.0467 245.198 66.7653 245.739 67.736C246.281 68.688 246.551 69.92 246.551 71.432V80H243.051V71.88C243.051 70.5547 242.734 69.5653 242.099 68.912C241.483 68.2587 240.615 67.932 239.495 67.932C238.674 67.932 237.946 68.1 237.311 68.436C236.677 68.772 236.182 69.276 235.827 69.948C235.491 70.6013 235.323 71.432 235.323 72.44V80H231.823ZM260.203 80V76.976L260.007 76.332V71.04C260.007 70.0133 259.699 69.22 259.083 68.66C258.467 68.0813 257.534 67.792 256.283 67.792C255.443 67.792 254.613 67.9227 253.791 68.184C252.989 68.4453 252.307 68.8093 251.747 69.276L250.375 66.728C251.178 66.112 252.13 65.6547 253.231 65.356C254.351 65.0387 255.509 64.88 256.703 64.88C258.869 64.88 260.539 65.4027 261.715 66.448C262.91 67.4747 263.507 69.0707 263.507 71.236V80H260.203ZM255.499 80.196C254.379 80.196 253.399 80.0093 252.559 79.636C251.719 79.244 251.066 78.712 250.599 78.04C250.151 77.3493 249.927 76.5747 249.927 75.716C249.927 74.876 250.123 74.12 250.515 73.448C250.926 72.776 251.589 72.244 252.503 71.852C253.418 71.46 254.631 71.264 256.143 71.264H260.483V73.588H256.395C255.201 73.588 254.398 73.784 253.987 74.176C253.577 74.5493 253.371 75.016 253.371 75.576C253.371 76.2107 253.623 76.7147 254.127 77.088C254.631 77.4613 255.331 77.648 256.227 77.648C257.086 77.648 257.851 77.452 258.523 77.06C259.214 76.668 259.709 76.0893 260.007 75.324L260.595 77.424C260.259 78.3013 259.653 78.9827 258.775 79.468C257.917 79.9533 256.825 80.196 255.499 80.196ZM179.632 114V94.4H182.628L191.196 108.708H189.628L198.056 94.4H201.052L201.08 114H197.636L197.608 99.804H198.336L191.168 111.76H189.544L182.264 99.804H183.104V114H179.632ZM212.366 114.196C211.097 114.196 209.977 113.963 209.006 113.496C208.036 113.011 207.28 112.283 206.738 111.312C206.197 110.323 205.926 109.081 205.926 107.588V99.048H209.426V107.112C209.426 108.456 209.725 109.464 210.322 110.136C210.938 110.789 211.806 111.116 212.926 111.116C213.748 111.116 214.457 110.948 215.054 110.612C215.67 110.276 216.146 109.772 216.482 109.1C216.837 108.428 217.014 107.597 217.014 106.608V99.048H220.514V114H217.182V109.968L217.77 111.2C217.266 112.171 216.529 112.917 215.558 113.44C214.588 113.944 213.524 114.196 212.366 114.196ZM229.717 114.196C228.466 114.196 227.262 114.037 226.105 113.72C224.966 113.384 224.061 112.983 223.389 112.516L224.733 109.856C225.405 110.285 226.207 110.64 227.141 110.92C228.074 111.2 229.007 111.34 229.941 111.34C231.042 111.34 231.835 111.191 232.321 110.892C232.825 110.593 233.077 110.192 233.077 109.688C233.077 109.277 232.909 108.969 232.573 108.764C232.237 108.54 231.798 108.372 231.257 108.26C230.715 108.148 230.109 108.045 229.437 107.952C228.783 107.859 228.121 107.737 227.449 107.588C226.795 107.42 226.198 107.187 225.657 106.888C225.115 106.571 224.677 106.151 224.341 105.628C224.005 105.105 223.837 104.415 223.837 103.556C223.837 102.604 224.107 101.783 224.649 101.092C225.19 100.383 225.946 99.8413 226.917 99.468C227.906 99.076 229.073 98.88 230.417 98.88C231.425 98.88 232.442 98.992 233.469 99.216C234.495 99.44 235.345 99.7573 236.017 100.168L234.673 102.828C233.963 102.399 233.245 102.109 232.517 101.96C231.807 101.792 231.098 101.708 230.389 101.708C229.325 101.708 228.531 101.867 228.009 102.184C227.505 102.501 227.253 102.903 227.253 103.388C227.253 103.836 227.421 104.172 227.757 104.396C228.093 104.62 228.531 104.797 229.073 104.928C229.614 105.059 230.211 105.171 230.865 105.264C231.537 105.339 232.199 105.46 232.853 105.628C233.506 105.796 234.103 106.029 234.645 106.328C235.205 106.608 235.653 107.009 235.989 107.532C236.325 108.055 236.493 108.736 236.493 109.576C236.493 110.509 236.213 111.321 235.653 112.012C235.111 112.703 234.337 113.244 233.329 113.636C232.321 114.009 231.117 114.196 229.717 114.196ZM239.507 114V93.224H243.007V114H239.507ZM247.601 114V99.048H251.101V114H247.601ZM249.365 96.584C248.711 96.584 248.17 96.3787 247.741 95.968C247.33 95.5573 247.125 95.0627 247.125 94.484C247.125 93.8867 247.33 93.392 247.741 93C248.17 92.5893 248.711 92.384 249.365 92.384C250.018 92.384 250.55 92.58 250.961 92.972C251.39 93.3453 251.605 93.8213 251.605 94.4C251.605 95.016 251.399 95.5387 250.989 95.968C250.578 96.3787 250.037 96.584 249.365 96.584ZM255.694 114V99.048H259.026V103.024L258.438 101.848C258.942 100.877 259.67 100.14 260.622 99.636C261.593 99.132 262.694 98.88 263.926 98.88C265.326 98.88 266.54 99.2253 267.566 99.916C268.612 100.607 269.302 101.652 269.638 103.052L268.266 102.576C268.752 101.456 269.554 100.56 270.674 99.888C271.794 99.216 273.092 98.88 274.566 98.88C275.761 98.88 276.816 99.1133 277.73 99.58C278.664 100.047 279.392 100.765 279.914 101.736C280.437 102.688 280.698 103.92 280.698 105.432V114H277.198V105.88C277.198 104.555 276.909 103.565 276.33 102.912C275.752 102.259 274.921 101.932 273.838 101.932C273.073 101.932 272.392 102.1 271.794 102.436C271.216 102.772 270.758 103.267 270.422 103.92C270.105 104.573 269.946 105.404 269.946 106.412V114H266.446V105.88C266.446 104.555 266.157 103.565 265.578 102.912C265 102.259 264.169 101.932 263.086 101.932C262.321 101.932 261.64 102.1 261.042 102.436C260.464 102.772 260.006 103.267 259.67 103.92C259.353 104.573 259.194 105.404 259.194 106.412V114H255.694ZM176.86 148L185.68 128.4H189.264L198.112 148H194.304L186.716 130.332H188.172L180.612 148H176.86ZM180.92 143.464L181.9 140.608H192.484L193.464 143.464H180.92ZM204.752 148.196C203.501 148.196 202.297 148.037 201.14 147.72C200.001 147.384 199.096 146.983 198.424 146.516L199.768 143.856C200.44 144.285 201.243 144.64 202.176 144.92C203.109 145.2 204.043 145.34 204.976 145.34C206.077 145.34 206.871 145.191 207.356 144.892C207.86 144.593 208.112 144.192 208.112 143.688C208.112 143.277 207.944 142.969 207.608 142.764C207.272 142.54 206.833 142.372 206.292 142.26C205.751 142.148 205.144 142.045 204.472 141.952C203.819 141.859 203.156 141.737 202.484 141.588C201.831 141.42 201.233 141.187 200.692 140.888C200.151 140.571 199.712 140.151 199.376 139.628C199.04 139.105 198.872 138.415 198.872 137.556C198.872 136.604 199.143 135.783 199.684 135.092C200.225 134.383 200.981 133.841 201.952 133.468C202.941 133.076 204.108 132.88 205.452 132.88C206.46 132.88 207.477 132.992 208.504 133.216C209.531 133.44 210.38 133.757 211.052 134.168L209.708 136.828C208.999 136.399 208.28 136.109 207.552 135.96C206.843 135.792 206.133 135.708 205.424 135.708C204.36 135.708 203.567 135.867 203.044 136.184C202.54 136.501 202.288 136.903 202.288 137.388C202.288 137.836 202.456 138.172 202.792 138.396C203.128 138.62 203.567 138.797 204.108 138.928C204.649 139.059 205.247 139.171 205.9 139.264C206.572 139.339 207.235 139.46 207.888 139.628C208.541 139.796 209.139 140.029 209.68 140.328C210.24 140.608 210.688 141.009 211.024 141.532C211.36 142.055 211.528 142.736 211.528 143.576C211.528 144.509 211.248 145.321 210.688 146.012C210.147 146.703 209.372 147.244 208.364 147.636C207.356 148.009 206.152 148.196 204.752 148.196ZM219.162 148.196C217.911 148.196 216.707 148.037 215.55 147.72C214.411 147.384 213.506 146.983 212.834 146.516L214.178 143.856C214.85 144.285 215.653 144.64 216.586 144.92C217.519 145.2 218.453 145.34 219.386 145.34C220.487 145.34 221.281 145.191 221.766 144.892C222.27 144.593 222.522 144.192 222.522 143.688C222.522 143.277 222.354 142.969 222.018 142.764C221.682 142.54 221.243 142.372 220.702 142.26C220.161 142.148 219.554 142.045 218.882 141.952C218.229 141.859 217.566 141.737 216.894 141.588C216.241 141.42 215.643 141.187 215.102 140.888C214.561 140.571 214.122 140.151 213.786 139.628C213.45 139.105 213.282 138.415 213.282 137.556C213.282 136.604 213.553 135.783 214.094 135.092C214.635 134.383 215.391 133.841 216.362 133.468C217.351 133.076 218.518 132.88 219.862 132.88C220.87 132.88 221.887 132.992 222.914 133.216C223.941 133.44 224.79 133.757 225.462 134.168L224.118 136.828C223.409 136.399 222.69 136.109 221.962 135.96C221.253 135.792 220.543 135.708 219.834 135.708C218.77 135.708 217.977 135.867 217.454 136.184C216.95 136.501 216.698 136.903 216.698 137.388C216.698 137.836 216.866 138.172 217.202 138.396C217.538 138.62 217.977 138.797 218.518 138.928C219.059 139.059 219.657 139.171 220.31 139.264C220.982 139.339 221.645 139.46 222.298 139.628C222.951 139.796 223.549 140.029 224.09 140.328C224.65 140.608 225.098 141.009 225.434 141.532C225.77 142.055 225.938 142.736 225.938 143.576C225.938 144.509 225.658 145.321 225.098 146.012C224.557 146.703 223.782 147.244 222.774 147.636C221.766 148.009 220.562 148.196 219.162 148.196ZM235.672 148.196C234.142 148.196 232.779 147.869 231.584 147.216C230.39 146.544 229.447 145.629 228.756 144.472C228.066 143.315 227.72 141.999 227.72 140.524C227.72 139.031 228.066 137.715 228.756 136.576C229.447 135.419 230.39 134.513 231.584 133.86C232.779 133.207 234.142 132.88 235.672 132.88C237.222 132.88 238.594 133.207 239.788 133.86C241.002 134.513 241.944 135.409 242.616 136.548C243.307 137.687 243.652 139.012 243.652 140.524C243.652 141.999 243.307 143.315 242.616 144.472C241.944 145.629 241.002 146.544 239.788 147.216C238.594 147.869 237.222 148.196 235.672 148.196ZM235.672 145.2C236.531 145.2 237.296 145.013 237.968 144.64C238.64 144.267 239.163 143.725 239.536 143.016C239.928 142.307 240.124 141.476 240.124 140.524C240.124 139.553 239.928 138.723 239.536 138.032C239.163 137.323 238.64 136.781 237.968 136.408C237.296 136.035 236.54 135.848 235.7 135.848C234.842 135.848 234.076 136.035 233.404 136.408C232.751 136.781 232.228 137.323 231.836 138.032C231.444 138.723 231.248 139.553 231.248 140.524C231.248 141.476 231.444 142.307 231.836 143.016C232.228 143.725 232.751 144.267 233.404 144.64C234.076 145.013 234.832 145.2 235.672 145.2ZM253.859 148.196C252.291 148.196 250.891 147.869 249.659 147.216C248.446 146.544 247.494 145.629 246.803 144.472C246.112 143.315 245.767 141.999 245.767 140.524C245.767 139.031 246.112 137.715 246.803 136.576C247.494 135.419 248.446 134.513 249.659 133.86C250.891 133.207 252.291 132.88 253.859 132.88C255.315 132.88 256.594 133.179 257.695 133.776C258.815 134.355 259.664 135.213 260.243 136.352L257.555 137.92C257.107 137.211 256.556 136.688 255.903 136.352C255.268 136.016 254.578 135.848 253.831 135.848C252.972 135.848 252.198 136.035 251.507 136.408C250.816 136.781 250.275 137.323 249.883 138.032C249.491 138.723 249.295 139.553 249.295 140.524C249.295 141.495 249.491 142.335 249.883 143.044C250.275 143.735 250.816 144.267 251.507 144.64C252.198 145.013 252.972 145.2 253.831 145.2C254.578 145.2 255.268 145.032 255.903 144.696C256.556 144.36 257.107 143.837 257.555 143.128L260.243 144.696C259.664 145.816 258.815 146.684 257.695 147.3C256.594 147.897 255.315 148.196 253.859 148.196ZM263.132 148V133.048H266.632V148H263.132ZM264.896 130.584C264.243 130.584 263.701 130.379 263.272 129.968C262.861 129.557 262.656 129.063 262.656 128.484C262.656 127.887 262.861 127.392 263.272 127C263.701 126.589 264.243 126.384 264.896 126.384C265.549 126.384 266.081 126.58 266.492 126.972C266.921 127.345 267.136 127.821 267.136 128.4C267.136 129.016 266.931 129.539 266.52 129.968C266.109 130.379 265.568 130.584 264.896 130.584ZM280.438 148V144.976L280.242 144.332V139.04C280.242 138.013 279.934 137.22 279.318 136.66C278.702 136.081 277.768 135.792 276.518 135.792C275.678 135.792 274.847 135.923 274.026 136.184C273.223 136.445 272.542 136.809 271.982 137.276L270.61 134.728C271.412 134.112 272.364 133.655 273.466 133.356C274.586 133.039 275.743 132.88 276.938 132.88C279.103 132.88 280.774 133.403 281.95 134.448C283.144 135.475 283.742 137.071 283.742 139.236V148H280.438ZM275.734 148.196C274.614 148.196 273.634 148.009 272.794 147.636C271.954 147.244 271.3 146.712 270.834 146.04C270.386 145.349 270.162 144.575 270.162 143.716C270.162 142.876 270.358 142.12 270.75 141.448C271.16 140.776 271.823 140.244 272.738 139.852C273.652 139.46 274.866 139.264 276.378 139.264H280.718V141.588H276.63C275.435 141.588 274.632 141.784 274.222 142.176C273.811 142.549 273.606 143.016 273.606 143.576C273.606 144.211 273.858 144.715 274.362 145.088C274.866 145.461 275.566 145.648 276.462 145.648C277.32 145.648 278.086 145.452 278.758 145.06C279.448 144.668 279.943 144.089 280.242 143.324L280.83 145.424C280.494 146.301 279.887 146.983 279.01 147.468C278.151 147.953 277.059 148.196 275.734 148.196ZM293.862 148.196C292.219 148.196 290.95 147.776 290.053 146.936C289.158 146.077 288.71 144.817 288.71 143.156V129.744H292.21V143.072C292.21 143.781 292.387 144.332 292.742 144.724C293.115 145.116 293.628 145.312 294.282 145.312C295.066 145.312 295.719 145.107 296.242 144.696L297.222 147.188C296.811 147.524 296.307 147.776 295.71 147.944C295.112 148.112 294.496 148.196 293.862 148.196ZM286.246 135.848V133.048H296.214V135.848H286.246ZM300.101 148V133.048H303.601V148H300.101ZM301.865 130.584C301.211 130.584 300.67 130.379 300.241 129.968C299.83 129.557 299.625 129.063 299.625 128.484C299.625 127.887 299.83 127.392 300.241 127C300.67 126.589 301.211 126.384 301.865 126.384C302.518 126.384 303.05 126.58 303.461 126.972C303.89 127.345 304.105 127.821 304.105 128.4C304.105 129.016 303.899 129.539 303.489 129.968C303.078 130.379 302.537 130.584 301.865 130.584ZM314.914 148.196C313.384 148.196 312.021 147.869 310.826 147.216C309.632 146.544 308.689 145.629 307.998 144.472C307.308 143.315 306.962 141.999 306.962 140.524C306.962 139.031 307.308 137.715 307.998 136.576C308.689 135.419 309.632 134.513 310.826 133.86C312.021 133.207 313.384 132.88 314.914 132.88C316.464 132.88 317.836 133.207 319.03 133.86C320.244 134.513 321.186 135.409 321.858 136.548C322.549 137.687 322.894 139.012 322.894 140.524C322.894 141.999 322.549 143.315 321.858 144.472C321.186 145.629 320.244 146.544 319.03 147.216C317.836 147.869 316.464 148.196 314.914 148.196ZM314.914 145.2C315.773 145.2 316.538 145.013 317.21 144.64C317.882 144.267 318.405 143.725 318.778 143.016C319.17 142.307 319.366 141.476 319.366 140.524C319.366 139.553 319.17 138.723 318.778 138.032C318.405 137.323 317.882 136.781 317.21 136.408C316.538 136.035 315.782 135.848 314.942 135.848C314.084 135.848 313.318 136.035 312.646 136.408C311.993 136.781 311.47 137.323 311.078 138.032C310.686 138.723 310.49 139.553 310.49 140.524C310.49 141.476 310.686 142.307 311.078 143.016C311.47 143.725 311.993 144.267 312.646 144.64C313.318 145.013 314.074 145.2 314.914 145.2ZM326.241 148V133.048H329.573V137.08L328.985 135.848C329.508 134.896 330.264 134.168 331.253 133.664C332.261 133.141 333.419 132.88 334.725 132.88C335.92 132.88 336.984 133.113 337.917 133.58C338.869 134.047 339.616 134.765 340.157 135.736C340.699 136.688 340.969 137.92 340.969 139.432V148H337.469V139.88C337.469 138.555 337.152 137.565 336.517 136.912C335.901 136.259 335.033 135.932 333.913 135.932C333.092 135.932 332.364 136.1 331.729 136.436C331.095 136.772 330.6 137.276 330.245 137.948C329.909 138.601 329.741 139.432 329.741 140.44V148H326.241Z" fill="#C9A84C"/>
</svg>
